<?xml version="1.0" standalone="no"?>
<!DOCTYPE svg PUBLIC "-//W3C//DTD SVG 1.1//EN" "http://www.w3.org/Graphics/SVG/1.1/DTD/svg11.dtd" >
<svg xmlns="http://www.w3.org/2000/svg">
<metadata>Generated by IcoMoon</metadata>
<defs>
<font id="icomoon" horiz-adv-x="1024">
<font-face units-per-em="1024" ascent="960" descent="-64" />
<missing-glyph horiz-adv-x="1024" />
<glyph unicode="&#x20;" horiz-adv-x="512" d="" />
<glyph unicode="&#xe900;" glyph-name="angle-down-circle" d="M714.854 505.088l-191.283-191.437c-4.403-4.403-10.291-6.656-16.077-6.656s-11.571 2.253-15.974 6.656l-182.374 182.272c-8.96 8.806-8.96 23.194-0.102 32.051 8.96 8.858 23.245 8.858 32.051 0l166.4-166.246 175.411 175.309c8.858 8.806 23.091 8.806 31.949 0 8.96-8.858 8.96-23.091 0-31.949zM942.387 448c0-237.773-192.666-430.387-430.387-430.387s-430.387 192.614-430.387 430.387 192.614 430.387 430.387 430.387 430.387-192.614 430.387-430.387zM897.075 448c0 212.378-172.698 385.075-385.075 385.075s-385.075-172.749-385.075-385.075c0-212.326 172.749-385.075 385.075-385.075 212.378 0 385.075 172.749 385.075 385.075z" />
<glyph unicode="&#xe901;" glyph-name="angle-down" d="M514.588 365.41l-249.498 243.712c-15.872 15.514-41.165 15.206-56.576-0.614-15.565-15.821-15.002-41.114 0.614-56.576l278.17-271.616c15.872-15.514 41.216-15.155 56.576 0.614l271.718 278.17c7.578 7.782 11.418 17.92 11.418 28.006 0 10.394-4.096 20.787-12.083 28.621-15.821 15.514-41.114 15.104-56.525-0.614l-243.814-249.702z" />
<glyph unicode="&#xe902;" glyph-name="angle-left-circle" d="M601.037 245.146c-4.454-4.403-10.189-6.707-15.974-6.707-5.734 0-11.571 2.304-15.974 6.707l-191.386 191.283c-8.858 8.858-8.858 23.245 0 32.051l182.221 182.374c8.858 8.96 23.245 8.858 32.051 0 8.858-8.806 8.858-23.091 0-31.949l-166.298-166.4 175.36-175.411c8.806-8.858 8.806-23.091 0-31.949zM942.387 448c0-237.773-192.666-430.387-430.387-430.387s-430.387 192.614-430.387 430.387 192.614 430.387 430.387 430.387 430.387-192.614 430.387-430.387zM897.075 448c0 212.378-172.698 385.075-385.075 385.075s-385.075-172.749-385.075-385.075c0-212.378 172.749-385.075 385.075-385.075s385.075 172.698 385.075 385.075z" />
<glyph unicode="&#xe903;" glyph-name="angle-left" d="M429.466 445.491l243.712 249.498c15.514 15.872 15.206 41.165-0.614 56.576-15.821 15.565-41.114 15.002-56.576-0.614l-271.616-278.17c-15.514-15.872-15.155-41.216 0.614-56.576l278.17-271.718c7.782-7.578 17.92-11.418 28.006-11.418 10.394 0 20.787 4.096 28.621 12.083 15.514 15.821 15.104 41.114-0.614 56.525l-249.702 243.814z" />
<glyph unicode="&#xe904;" glyph-name="angle-right-circle" d="M641.126 427.52l-182.221-182.374c-8.806-8.858-23.091-9.011-32 0-8.858 8.858-8.858 23.091 0 31.949l166.298 166.4-175.36 175.411c-8.858 8.858-8.858 23.142 0 31.949 8.806 8.96 23.091 8.96 31.949 0l191.386-191.283c8.806-8.858 8.806-23.245-0.051-32.051zM942.387 448c0-237.773-192.717-430.387-430.387-430.387-237.773 0-430.387 192.666-430.387 430.387s192.614 430.387 430.387 430.387c237.722 0 430.387-192.614 430.387-430.387zM897.075 448c0 212.378-172.749 385.075-385.075 385.075-212.378 0-385.075-172.749-385.075-385.075s172.749-385.075 385.075-385.075c212.326 0 385.075 172.749 385.075 385.075z" />
<glyph unicode="&#xe905;" glyph-name="angle-right" d="M594.483 445.491l-243.712 249.498c-15.514 15.872-15.206 41.165 0.614 56.576 15.821 15.565 41.114 15.002 56.576-0.614l271.667-278.17c15.565-15.872 15.155-41.216-0.614-56.576l-278.118-271.718c-7.782-7.578-17.92-11.418-28.006-11.418-10.394 0-20.787 4.096-28.621 12.083-15.514 15.821-15.104 41.114 0.614 56.525l249.6 243.814z" />
<glyph unicode="&#xe906;" glyph-name="angle-up-circle" d="M711.117 365.517c-8.704-8.704-22.682-8.704-31.334 0l-163.277 163.174-172.186-172.032c-8.755-8.755-22.579-8.755-31.334 0-8.806 8.653-8.806 22.682 0 31.283l187.75 187.853c8.704 8.704 22.784 8.806 31.437 0l178.995-178.842c8.602-8.704 8.755-22.835-0.051-31.437zM934.4 448c0-233.37-189.082-422.4-422.4-422.4s-422.4 189.030-422.4 422.4c0 233.318 189.082 422.4 422.4 422.4s422.4-189.082 422.4-422.4zM890.010 448c0 208.384-169.574 377.958-378.010 377.958s-377.958-169.574-377.958-377.958 169.574-377.907 377.958-377.907 378.010 169.523 378.010 377.907z" />
<glyph unicode="&#xe907;" glyph-name="angle-up" d="M509.547 530.613l249.498-243.712c15.872-15.514 41.165-15.206 56.576 0.614 15.565 15.821 15.002 41.114-0.614 56.576l-278.17 271.616c-15.872 15.514-41.216 15.155-56.576-0.614l-271.718-278.17c-7.578-7.782-11.418-17.92-11.418-28.006 0-10.394 4.096-20.787 12.083-28.621 15.821-15.514 41.114-15.104 56.525 0.614l243.814 249.702z" />
<glyph unicode="&#xe908;" glyph-name="arrow-down" d="M471.647 871.496v-750.387l-214.221 214.221c-15.667 15.667-41.011 15.667-56.678 0s-15.667-41.011 0-56.678l280.678-280.678c0.717-0.819 0.922-1.843 1.741-2.662 9.267-9.267 21.76-12.39 33.792-10.701 1.946 0.256 3.635 0.614 5.581 1.126 5.018 1.434 9.626 3.84 13.875 7.27 1.331 1.075 3.123 1.075 4.352 2.304 0.819 0.768 1.024 1.741 1.69 2.56l280.73 280.781c15.718 15.667 15.718 41.011 0 56.678-15.616 15.667-41.011 15.667-56.576 0l-214.272-214.221v750.387c0 22.323-18.074 40.346-40.346 40.346s-40.346-18.022-40.346-40.346z" />
<glyph unicode="&#xe909;" glyph-name="arrow-left" d="M935.475 488.346h-750.387l214.221 214.221c15.667 15.667 15.667 41.011 0 56.678s-41.011 15.667-56.678 0l-280.678-280.678c-0.819-0.717-1.843-0.922-2.662-1.741-9.267-9.267-12.39-21.76-10.701-33.792 0.256-1.946 0.614-3.635 1.126-5.581 1.434-5.018 3.84-9.626 7.27-13.875 1.075-1.331 1.075-3.123 2.304-4.352 0.768-0.819 1.741-1.024 2.56-1.69l280.781-280.73c15.667-15.718 41.011-15.718 56.678 0 15.667 15.616 15.667 41.011 0 56.576l-214.221 214.272h750.387c22.323 0 40.346 18.074 40.346 40.346s-18.022 40.346-40.346 40.346z" />
<glyph unicode="&#xe90a;" glyph-name="arrow-right" d="M88.525 488.346h750.387l-214.221 214.221c-15.718 15.667-15.718 41.011 0 56.678 15.616 15.667 41.011 15.667 56.627 0l280.627-280.678c0.922-0.717 1.894-0.973 2.714-1.741 9.267-9.267 12.39-21.76 10.701-33.792-0.205-1.946-0.614-3.635-1.075-5.581-1.434-5.018-3.84-9.626-7.322-13.875-1.075-1.331-1.075-3.123-2.304-4.352-0.768-0.819-1.741-1.024-2.611-1.69l-280.73-280.73c-15.667-15.718-41.062-15.718-56.627 0-15.718 15.616-15.718 41.011 0 56.576l214.221 214.272h-750.387c-22.323 0-40.346 18.074-40.346 40.346s18.022 40.346 40.346 40.346z" />
<glyph unicode="&#xe90b;" glyph-name="arrow-up" d="M552.325 24.517v750.387l214.221-214.221c15.667-15.667 41.011-15.667 56.678 0s15.667 41.011 0 56.678l-280.678 280.678c-0.717 0.819-0.922 1.843-1.741 2.662-9.267 9.267-21.76 12.39-33.792 10.701-1.946-0.256-3.635-0.614-5.581-1.126-5.018-1.434-9.626-3.84-13.875-7.27-1.331-1.075-3.123-1.075-4.352-2.304-0.819-0.768-1.024-1.741-1.69-2.56l-280.73-280.781c-15.718-15.667-15.718-41.011 0-56.678 15.616-15.667 41.011-15.667 56.576 0l214.272 214.221v-750.387c0-22.323 18.074-40.346 40.346-40.346s40.346 18.022 40.346 40.346z" />
<glyph unicode="&#xe90c;" glyph-name="attachment" d="M353.958 38.4c-64.669 0.32-126.791 23.68-173.808 65.601l-3.564 2.88c-46.507 40.161-72.986 96.803-72.986 156.324 0 59.361 26.478 116.163 72.986 156.324l464.392 394.25c68.233 58.562 172.789 58.562 241.022 0 33.268-28.161 52.448-68.162 52.787-110.243-0.169-41.121-18.67-80.322-50.75-108.003l-436.895-370.729c-37.511-32.161-94.712-32.161-132.223 0-18.331 15.521-29.025 37.761-29.194 60.961 0.17 22.881 10.354 44.641 28.176 60.002l408.21 345.448 23.254-24.641-408.21-344.328c-10.694-9.281-16.804-22.401-16.804-36.161 0-13.6 6.11-26.721 16.804-36.001 24.272-21.121 61.614-21.121 85.885 0l437.405 368.969c25.12 21.6 39.378 52.161 39.378 84.162 0 32.161-14.258 62.722-39.378 84.322-54.824 48.641-140.031 49.441-195.703 1.92l-465.58-395.53c-39.378-33.921-61.953-81.922-61.953-132.323s22.575-98.403 61.953-132.483l3.564-2.88c85.546-73.762 216.58-73.762 302.126 0l436.895 370.889 23.254-24.161-436.556-368.969c-47.186-42.081-109.648-65.601-174.486-65.601z" />
<glyph unicode="&#xe90d;" glyph-name="attention" d="M512 65.6c-211.2 0-382.4 171.2-382.4 382.4s171.2 382.4 382.4 382.4 382.4-171.2 382.4-382.4c0-211.2-171.2-382.4-382.4-382.4v0zM512 788.8c-187.2 0-340.8-153.6-340.8-340.8s153.6-340.8 340.8-340.8 340.8 153.6 340.8 340.8-153.6 340.8-340.8 340.8v0zM489.6 289.6h44.8v-44.8h-44.8zM524.8 334.4h-25.6l-9.6 180.8v136h44.8v-136l-9.6-180.8z" />
<glyph unicode="&#xe90e;" glyph-name="audio" d="M532.634 180.173v-104.192h144.742c11.418 0 20.634-9.267 20.634-20.685s-9.267-20.634-20.634-20.634h-330.752c-11.418 0-20.685 9.267-20.685 20.634 0 11.469 9.267 20.685 20.685 20.685h144.691v104.192c-138.547 10.598-248.064 126.618-248.064 267.827 0 11.418 9.267 20.634 20.685 20.634s20.685-9.216 20.685-20.634c0-125.389 101.99-227.379 227.379-227.379s227.379 101.99 227.379 227.379c0 11.418 9.318 20.634 20.685 20.634s20.634-9.216 20.634-20.634c0-141.21-109.568-257.229-248.064-267.827zM666.931 706.406v-258.406c0-85.453-69.478-154.982-154.982-154.982s-154.982 69.53-154.982 154.982v258.406c0 85.453 69.53 155.034 155.034 155.034s154.931-69.581 154.931-155.034zM625.715 706.406c0 62.72-50.995 113.664-113.715 113.664s-113.715-50.944-113.715-113.664v-258.406c0-62.72 50.995-113.664 113.715-113.664s113.715 50.944 113.715 113.664v258.406z" />
<glyph unicode="&#xe90f;" glyph-name="bell" d="M896 177.6c-145.6 0-164.8 136-184 267.2-20.8 142.4-40 275.2-200 275.2s-179.2-134.4-200-275.2c-19.2-131.2-38.4-267.2-184-267.2v41.6c102.4 0 121.6 86.4 142.4 230.4 19.2 139.2 44.8 312 241.6 312s222.4-172.8 241.6-312c20.8-144 40-230.4 142.4-230.4v-41.6zM512 88c-60.8 0-112 49.6-112 112h41.6c0-38.4 30.4-68.8 68.8-68.8s68.8 30.4 68.8 68.8h41.6c3.2-62.4-48-112-108.8-112zM128 220.8h768v-44.8h-768zM556.8 763.2c0-25.6-20.8-33.6-44.8-33.6s-44.8 9.6-44.8 33.6 20.8 44.8 44.8 44.8 44.8-19.2 44.8-44.8z" />
<glyph unicode="&#xe910;" glyph-name="brightness" d="M162.97 479.693h-126.925v-63.437h126.925v63.437zM153.037 133.888l44.851-44.902 89.702 89.805-44.851 44.8-89.702-89.702zM871.014 762.061l-44.902 44.851-89.702-89.702 44.8-44.851 89.805 89.702zM543.744 923.904h-63.488v-126.925h63.437v126.925zM287.642 717.21l-89.754 89.754-44.851-44.902 89.754-89.702 44.851 44.851zM736.41 178.79l89.702-89.805 44.902 44.902-89.805 89.702-44.8-44.8zM480.256-28.006h63.437v126.976h-63.437v-126.976zM860.979 479.693v-63.437h126.925v63.437h-126.925zM512 701.85c-140.186 0-253.85-113.664-253.85-253.85s113.664-253.901 253.85-253.901c140.186 0 253.85 113.715 253.85 253.901 0 140.134-113.664 253.85-253.85 253.85zM512 257.178c-105.37 0-190.771 85.402-190.771 190.822 0 105.37 85.402 190.771 190.771 190.771 105.421 0 190.822-85.402 190.822-190.771 0-105.421-85.402-190.822-190.822-190.822z" />
<glyph unicode="&#xe911;" glyph-name="calendar" d="M847.718 731.29h-83.968v41.984c0 11.52-9.37 20.992-20.941 20.992s-20.992-9.472-20.992-20.992v-41.984h-419.686v41.984c0 11.52-9.472 20.992-20.992 20.992-11.571 0-20.992-9.472-20.992-20.992v-41.984h-83.917c-46.285 0-83.968-37.632-83.968-83.917v-461.67c0-46.285 37.683-83.968 83.968-83.968h671.437c46.285 0 83.968 37.632 83.968 83.968v461.67c0 46.234-37.632 83.917-83.917 83.917zM889.702 185.702c0-23.194-18.739-41.933-41.984-41.933h-671.488c-23.194 0-41.984 18.739-41.984 41.933v314.726h755.405v-314.726zM889.702 542.413h-755.405v104.96c0 23.194 18.79 41.984 41.984 41.984h83.917v-62.976c0-11.52 9.421-20.992 20.992-20.992 11.52 0 20.992 9.472 20.992 20.992v62.976h419.635v-62.976c0-11.52 9.472-20.992 20.992-20.992 11.622 0 20.941 9.472 20.941 20.992v62.976h83.968c23.245 0 41.984-18.79 41.984-41.984v-104.96z" />
<glyph unicode="&#xe912;" glyph-name="camera" d="M824 136h-624c-36.8 0-67.2 30.4-67.2 67.2v401.6c0 36.8 30.4 67.2 67.2 67.2h134.4c3.2 0 11.2 4.8 12.8 8l24 49.6c9.6 17.6 32 32 52.8 32h177.6c20.8 0 43.2-14.4 52.8-32l24-49.6c1.6-3.2 8-8 12.8-8h134.4c36.8 0 67.2-30.4 67.2-67.2v-401.6c-1.6-36.8-32-67.2-68.8-67.2v0zM200 625.6c-12.8 0-22.4-9.6-22.4-22.4v-401.6c0-12.8 9.6-22.4 22.4-22.4h624c12.8 0 22.4 9.6 22.4 22.4v401.6c0 12.8-9.6 22.4-22.4 22.4h-134.4c-20.8 0-43.2 14.4-52.8 32l-24 49.6c-1.6 3.2-8 8-12.8 8h-177.6c-3.2 0-11.2-4.8-12.8-8l-24-49.6c-9.6-17.6-32-32-52.8-32h-132.8zM512 225.6c-110.4 0-200 89.6-200 200s89.6 200 200 200 200-89.6 200-200-89.6-200-200-200v0zM512 582.4c-86.4 0-156.8-70.4-156.8-156.8s70.4-156.8 156.8-156.8 156.8 70.4 156.8 156.8-70.4 156.8-156.8 156.8v0zM756.8 582.4c0-12.8-9.6-22.4-22.4-22.4s-22.4 9.6-22.4 22.4 9.6 22.4 22.4 22.4 22.4-11.2 22.4-22.4zM222.4 715.2h89.6v-22.4h-89.6zM512 515.2v22.4c-60.8 0-112-49.6-112-112h22.4c0 49.6 40 89.6 89.6 89.6z" />
<glyph unicode="&#xe913;" glyph-name="cart" d="M776 228.8h-484.8c-8 0-14.4 3.2-17.6 9.6-4.8 6.4-4.8 14.4-1.6 20.8l41.6 105.6-41.6 393.6h-134.4v44.8h153.6c11.2 0 20.8-8 22.4-19.2l44.8-417.6c0-3.2 0-6.4-1.6-11.2l-32-80h451.2v-46.4zM340.8 339.2l-9.6 43.2 510.4 105.6v180.8h-528v44.8h550.4c12.8 0 22.4-9.6 22.4-22.4v-220.8c0-11.2-8-19.2-17.6-20.8l-528-110.4zM798.4 96c-48 0-88 40-88 88s40 88 88 88c48 0 88-40 88-88s-40-88-88-88v0zM798.4 228.8c-24 0-44.8-19.2-44.8-44.8s19.2-44.8 44.8-44.8 44.8 19.2 44.8 44.8-20.8 44.8-44.8 44.8v0zM270.4 96c-48 0-88 40-88 88s40 88 88 88 88-40 88-88-40-88-88-88v0zM270.4 228.8c-24 0-44.8-19.2-44.8-44.8s19.2-44.8 44.8-44.8 44.8 19.2 44.8 44.8-20.8 44.8-44.8 44.8v0z" />
<glyph unicode="&#xe914;" glyph-name="chat" d="M881.203 786.432h-738.458c-11.264 0-20.48-9.216-20.48-20.48v-492.237c0-11.315 9.267-20.582 20.48-20.582h164.147v-122.982c0-18.586 21.965-27.29 34.97-14.592l139.264 137.626h400.077c11.315 0 20.531 9.318 20.531 20.582v492.186c0 11.315-9.216 20.48-20.531 20.48zM860.723 294.195h-388.045c-5.427 0-10.547-2.202-14.438-5.99l-110.336-109.005v94.515c0 11.213-9.216 20.48-20.531 20.48h-164.096v451.277h697.446v-451.277z" />
<glyph unicode="&#xe915;" glyph-name="check-circle" d="M523.213 873.574c-228.915 0-414.413-185.498-414.413-414.413s185.498-414.413 414.413-414.413 414.413 185.498 414.413 414.413-185.549 414.413-414.413 414.413zM523.213 88.474c-204.493 0-370.79 166.246-370.79 370.739s166.298 370.79 370.79 370.79c204.493 0 370.739-166.298 370.739-370.79s-166.246-370.739-370.739-370.739zM773.069 600.064c-8.55 8.55-22.426 8.55-30.925-0.102l-278.17-278.938-116.173 116.582c-8.499 8.55-22.374 8.55-30.874 0-8.499-8.499-8.602-22.374-0.102-30.874l131.738-131.994c4.045-4.096 9.626-6.4 15.36-6.4s11.366 2.304 15.514 6.4l293.683 294.451c8.602 8.55 8.448 22.374-0.051 30.874z" />
<glyph unicode="&#xe916;" glyph-name="check" d="M390.605 214.221c6.4-6.4 14.899-9.626 23.347-9.626 8.397 0 16.845 3.174 23.347 9.626l420.813 420.915c12.902 12.902 12.902 33.741 0 46.643s-33.741 12.902-46.643 0l-397.517-397.466-201.37 201.216c-12.902 12.851-33.792 12.851-46.643 0-12.902-12.902-12.902-33.792 0-46.643l224.666-224.666z" />
<glyph unicode="&#xe917;" glyph-name="clock" d="M510.4 81.6c-201.6 0-366.4 164.8-366.4 366.4s164.8 366.4 366.4 366.4c201.6 0 366.4-164.8 366.4-366.4 1.6-201.6-163.2-366.4-366.4-366.4v0zM510.4 776c-180.8 0-326.4-147.2-326.4-326.4s147.2-326.4 326.4-326.4 326.4 147.2 326.4 326.4-145.6 326.4-326.4 326.4v0zM625.6 260.8l-136 136v248h43.2v-230.4l123.2-123.2-30.4-30.4z" />
<glyph unicode="&#xe918;" glyph-name="cloud" d="M784 143.2h-544c-102.4 0-185.6 83.4-185.6 185.8 0 91.6 65 167.6 153.6 182.6 8 84.4 78.6 150 164.4 150 26.4 0 52.2-6.4 75.6-18.4 46.4 68 124 109.4 206.6 109.4 138 0 250.4-112.2 250.4-250.2 0-10-0.8-20.2-2.2-31 42.6-35.6 66.8-86.8 66.8-142.4 0-102.4-83.2-185.8-185.6-185.8zM372.4 625.4c-71.2 0-129-57.8-129-129v-16.6l-16.4-2c-76.6-6.6-136.6-72-136.6-148.8 0-82.6 67.2-149.6 149.6-149.6h544c82.4 0 149.4 67 149.4 149.6 0 47.6-22.2 91.4-60.8 120l-8.8 6.6 1.8 11c2.2 13 3.2 24.6 3.2 35.8 0 118-96 214.2-214.2 214.2-75.8 0-146.8-41-185.2-106.8l-9.6-16.6-16 10.6c-21.2 14.2-46 21.6-71.4 21.6z" />
<glyph unicode="&#xe919;" glyph-name="database" d="M512-64c-241.2 0-430 90.2-430 204.8v614.4c0 114.6 188.8 204.8 430 204.8s430-90.2 430-204.8v-614.4c0-114.6-188.8-204.8-430-204.8zM122.8 256.8v-116c0-79 156.6-163.8 389.2-163.8s389.2 84.8 389.2 163.8v116c-68.4-69.4-215.2-116-389.2-116s-320.8 46.6-389.2 116zM122.8 345.6c0-79 156.6-163.8 389.2-163.8s389.2 84.8 389.2 163.8v116c-68.4-69.4-215.2-116-389.2-116s-320.8 46.6-389.2 116zM122.8 550.4c0-79 156.6-163.8 389.2-163.8s389.2 84.8 389.2 163.8v116c-68.4-69.4-215.2-116-389.2-116s-320.8 46.6-389.2 116zM512 919c-232.6 0-389.2-84.8-389.2-163.8s156.6-163.8 389.2-163.8c232.6 0 389.2 84.8 389.2 163.8s-156.6 163.8-389.2 163.8z" />
<glyph unicode="&#xe91a;" glyph-name="download" d="M499 160.8c1.8-1.6 3.8-3 6-4 2.2-0.8 4.6-1.4 7-1.4s4.8 0.6 7 1.4c2.2 1 4.2 2.4 6 4l219.4 219.4c7.2 7.2 7.2 18.8 0 25.8-7.2 7.2-18.8 7.2-25.8 0l-188.4-188.2v650.8c0 10-8.2 18.2-18.2 18.2s-18.2-8.2-18.2-18.2v-650.8l-188.4 188.2c-7 7.2-18.6 7.2-25.8 0-7.2-7-7.2-18.6 0-25.8zM1005.8 265.2c-10.2 0-18.4-8.2-18.4-18.4v-201h-950.8v201c0 10.2-8.2 18.4-18.4 18.4-10 0-18.2-8.2-18.2-18.4v-237.6h1024v237.6c0 10.2-8.2 18.4-18.2 18.4z" />
<glyph unicode="&#xe91b;" glyph-name="envelope" d="M890.266 716.749h-756.48c-10.906 0-19.917-8.96-19.917-19.917v-497.664c0-11.059 8.96-19.917 19.917-19.917h756.48c10.957 0 19.917 8.858 19.917 19.917v497.664c-0.051 10.957-8.96 19.917-19.917 19.917zM842.138 676.864l-330.138-330.445-330.138 330.445h660.275zM153.702 648.653l200.755-200.96-200.755-200.96v401.92zM182.272 219.085l200.397 200.499 115.354-115.354c7.834-7.834 20.224-7.834 28.058 0l115.354 115.354 200.346-200.499h-659.507zM870.349 246.733l-200.755 200.96 200.755 200.96v-401.92z" />
<glyph unicode="&#xe91c;" glyph-name="eye-hide" d="M75.8-16.8l-29.2 29 173 172.8c-154 100-217.2 253.6-218.4 255.6-2 5-2 10.2 0 15.2 1.6 3.2 141 340.4 510.8 340.4 102.4 0 187.2-25.8 256-63.2l180.2 180.4 29.2-29.2-173-172.8c154-100 217.2-253.6 218.4-255.6 2-5 2-10.2 0-15.2-1.6-3.6-141-340.8-510.8-340.8-102.4 0-187.2 25.8-256 63.2zM285.4 192.8c62-31.2 136.8-52 226.6-52 315.8 0 447.2 258 469.4 307.2-14.4 32.4-75.8 154.4-205.6 234.8l-117.2-117.2c26.6-32 42.6-73 42.6-117.6 0-101.6-82.8-184.4-184.2-184.4-44.8 0-85.6 16-117.6 42.6zM42.6 448c14.4-32.4 75.8-154.4 205.6-234.8l122 122.2c-24 31-38.4 70-38.4 112.2 0 101.6 82.8 184.4 184.2 184.4 42.2 0 81.2-14.4 112.4-38.6l109.2 109.4c-61 31.6-135.8 52.4-225.6 52.4-315.8 0-447.2-258-469.4-307.2zM428 335.4c24.6-19.2 55.4-30.8 88.6-30.8 79 0 143.2 64.4 143.2 143.4 0 33.2-11.4 63.8-30.6 88.4zM516.6 591.4c-79.2 0-143.4-64.4-143.4-143.4 0-31.2 9.8-59.8 26.6-83.2l199.8 200c-23.2 16.8-52 26.6-83 26.6z" />
<glyph unicode="&#xe91d;" glyph-name="eye" d="M512 58.8c-369.8 0-509.2 337.2-512 340.4-2 5-2 10.4 0 15.2 2.8 3.6 142.2 340.8 512 340.8s509.2-337.2 512-340.4c2-4.8 2-10.2 0-15.2-2.8-3.6-142.2-340.8-512-340.8zM41 407c23.8-49.2 155.2-307.2 471-307.2s447.2 258 471 307.2c-23.8 49.2-155.2 307.2-471 307.2s-447.2-258-471-307.2zM512 222.8c-101.8 0-184.4 82.4-184.4 184.2s82.6 184.4 184.4 184.4c101.8 0 184.4-82.6 184.4-184.4s-82.6-184.2-184.4-184.2zM512 550.4c-79.2 0-143.4-64.2-143.4-143.4s64.2-143.4 143.4-143.4c79.2 0 143.4 64.2 143.4 143.4s-64.2 143.4-143.4 143.4z" />
<glyph unicode="&#xe91e;" glyph-name="file-copy" d="M894.4 690.8c-1.2 2.6-2.8 5-4.6 7l-256 256c-4 4-9.4 6.2-15.2 6.2h-341.2c-11.8 0-21.4-9.6-21.4-21.4v-106.6h-106.6c-11.8 0-21.4-9.6-21.4-21.4v-853.2c0-11.8 9.6-21.4 21.4-21.4h597.2c11.8 0 21.4 9.6 21.4 21.4v106.6h106.6c11.8 0 21.4 9.6 21.4 21.4v597.2c0 2.8-0.6 5.6-1.6 8.2zM640 887.2l183.2-183.2h-183.2zM725.4-21.4h-554.8v810.8h85.4v-704c0-11.8 9.6-21.4 21.4-21.4h448zM853.4 106.6h-554.8v810.8h298.8v-234.8c0-11.8 9.4-21.2 21.2-21.2h234.8z" />
<glyph unicode="&#xe91f;" glyph-name="file-text" d="M245.8 222.8h450.6v-41h-450.6zM737.2 468.4h-491.4v-40.8h491.4zM491.6 714.2h-245.8v-41h245.8zM942 693.8v-737.4c0-11.2-9-20.4-20.4-20.4h-819.2c-11.4 0-20.4 9.2-20.4 20.4v983.2c0 11.2 9 20.4 20.4 20.4h573.4c5.4 0 10.6-2.2 14.4-6.2l245.8-245.8c3.8-3.6 6-8.8 6-14.2zM696.4 714.2h175.6l-175.6 175.8zM901.2 673.2h-225.4c-11.2 0-20.4 9.2-20.4 20.6v225.2h-532.6v-942h778.4zM245.8 304.6h532.4v41h-532.4zM245.8 550.4h532.4v41h-532.4z" />
<glyph unicode="&#xe920;" glyph-name="file" d="M936 708l-245.8 245.8c-3.8 4-9 6.2-14.4 6.2h-573.4c-11.4 0-20.4-9.2-20.4-20.4v-983.2c0-11.2 9-20.4 20.4-20.4h819.2c11.4 0 20.4 9.2 20.4 20.4v737.4c0 5.4-2.2 10.6-6 14.2zM696.4 890l175.6-175.8h-175.6zM901.2-23h-778.4v942h532.6v-225.2c0-11.4 9.2-20.6 20.4-20.6h225.4z" />
<glyph unicode="&#xe921;" glyph-name="filter" d="M561 63.921c-1.95-0.295-3.75-0.295-5.55 0l-122.851 45.287c-6.3 2.36-10.35 8.556-9.9 15.194v296.064c-0.6 2.065-1.5 4.13-2.7 6.048l-251.401 362.446h-36.75c-8.55 0-15.45 6.786-15.45 15.194 0 8.261 6.9 15.047 15.45 15.047h737.253c8.4 0 15.3-6.786 15.3-15.047 0-8.409-6.9-15.194-15.3-15.194h-38.4l-250.951-362.446c-1.5-1.622-2.7-3.54-3.45-5.458v-342.089c0.15-4.868-2.1-9.441-6.15-12.391-2.7-1.77-5.85-2.803-9.15-2.655zM453.45 134.876l92.1-33.781v319.372c0.45 8.114 3.6 15.932 9 22.275l238.951 346.22h-587.702l239.401-346.515c5.1-6.196 8.1-14.014 8.55-21.98l-0.3-285.591z" />
<glyph unicode="&#xe922;" glyph-name="fire" d="M511.2-64c-26.2 0-52.2 2.4-77.8 7.4-178.4 36.2-307.6 191.6-310.6 373.6 0 136 67.6 217.4 127.8 289.6 60.2 72 107.4 129 82 223.2-2 8.2 1 16.8 8 21.6 6.8 5 16 5.2 23.2 0.4 68-46 121-111 152.8-186.8 0 0 0-2.4 4.4-2.8 3 0.2 5.4 2.2 6.2 5 21.6 88.2 9.8 181.6-33.2 261.6-3.6 7.2-2.6 16 2.4 22.2 5.2 6.2 13.6 8.8 21.4 6.6 73-25.4 139-67.4 192.8-123 86.4-83.4 190.6-243.2 190.6-516.4-0.2-113.6-51.2-221-139-293-70.6-58-159.4-89.6-251-89.2zM498.4 294.4c-31.8-23-88.8-82-88.8-213.8 0-56.6 45.8-102.4 102.4-102.4s102.4 45.8 102.4 102.4c-3.6 34.4-19.4 66.4-44.6 90.2-32.4 35.6-56.6 77.8-71.4 123.6zM381.8 786c2-84.8-47.2-144.2-99.2-204.8-58.6-71.8-118.8-143-118.8-264.2 2.6-145.4 95.4-273.8 232.6-321.6-18.2 24.6-27.8 54.6-27.8 85.2 0 208 130.2 262.2 135.6 264.6 5.6 2.6 12 2.6 17.6 0 5.4-3 9.2-8.2 10.2-14.4 10.4-50 34.4-96.2 69.2-133.4 32-31 51.2-72.6 54.2-116.8 0-30.2-9.6-59.6-27.4-84 39.8 13.4 76.8 33.8 109.2 60.2 78 64.4 123 160.2 123 261.4 0 392-213.8 537.4-309.2 582.8 31.2-78.2 37-164.2 16.2-245.8-5.2-20.2-23.2-34.4-44.2-35.2-20-1.4-38.6 10.8-45 30-20.6 52.6-53.6 99.6-96.2 136.8z" />
<glyph unicode="&#xe923;" glyph-name="forward" d="M858.112 575.488l-266.189 266.035c-11.981 12.237-32.41 3.379-32.41-13.363v-129.741c-13.67 1.792-29.44 3.226-45.107 3.226-195.226 0-354.048-155.75-354.048-347.29 0-128.819 71.373-242.125 190.925-303.309 18.79-9.677 36.352 13.619 23.091 29.286-34.714 40.602-51.61 84.224-51.61 133.222 0 120.218 98.816 218.010 220.314 218.010 5.53 0 11.008-0.154 16.435-0.563v-134.861c0-16.691 20.378-25.6 32.41-13.414l266.189 265.882c7.475 7.373 7.475 19.61 0 26.88zM597.606 342.118v106.138c0 9.472-7.014 17.459-16.282 18.79-11.213 1.638-25.088 2.56-38.246 2.56-142.336 0-258.355-114.739-258.355-256 0-28.518 5.069-55.91 14.95-82.022-64.563 56.883-101.325 135.987-101.325 222.822 0 170.547 141.824 309.299 316.006 309.299 22.426 0 45.363-3.43 60.621-6.298 11.827-2.202 22.579 6.861 22.579 18.739v106.086l220.211-220.16-220.16-219.955z" />
<glyph unicode="&#xe924;" glyph-name="headphone" d="M862.28 38.4c-61.2 0-110.7 46.751-110.7 104.382v174.083c0.18 41.141 25.74 78.541 65.52 95.202 39.78 16.83 86.4 9.86 118.8-17.51v83.641c0.18 99.962-40.32 196.183-113.22 268.775l-47.52-47.091c-8.64-8.84-20.7-14.11-33.48-14.45-12.6-0.34-25.020 4.080-34.38 12.41-109.98 98.432-282.060 99.282-393.3 2.040-8.82-8.5-21.060-13.43-33.84-13.43s-25.020 4.93-34.020 13.43l-44.82 47.431c-72.9-72.591-113.4-168.813-113.22-268.775v-83.641c32.58 27.54 79.020 34.341 118.98 17.51 39.78-16.83 65.34-54.231 65.34-95.542v-174.083c0-57.631-49.5-104.382-110.7-104.382-61.020 0-110.52 46.751-110.52 104.382v335.756c-0.18 114.072 48.060 223.384 134.1 303.625 180.9 168.983 472.14 168.983 652.86 0 86.22-80.071 134.82-189.553 134.64-303.625v-335.756c0-57.631-49.5-104.382-110.52-104.382zM788.48 142.782c0-38.421 32.94-69.531 73.8-69.531 40.68 0 73.62 31.111 73.62 69.531v174.083c0 38.591-32.94 69.701-73.62 69.701-40.86 0-73.8-31.111-73.8-69.701v-174.083zM88.1 142.782c0-38.421 32.94-69.531 73.62-69.531 40.86 0 73.8 31.111 73.8 69.531v174.083c0 38.591-32.94 69.701-73.8 69.701-40.68 0-73.62-31.111-73.62-69.701v-174.083zM510.92 804.433c82.26-0.51 161.28-30.6 221.22-83.981 1.98-2.040 4.86-3.23 7.92-3.23 2.88 0 5.76 1.19 7.92 3.23l48.24 49.811c-162 136.512-406.8 136.512-568.8 0l45-45.561c1.98-2.040 4.86-3.23 7.92-3.23 2.88 0 5.76 1.19 7.92 3.23 60.84 52.021 140.4 80.581 222.66 79.731z" />
<glyph unicode="&#xe925;" glyph-name="help" d="M513.6 64c-211.2 0-382.4 171.2-382.4 382.4s171.2 382.4 382.4 382.4c211.2 0 382.4-171.2 382.4-382.4s-171.2-382.4-382.4-382.4v0zM513.6 787.2c-187.2 0-340.8-153.6-340.8-340.8s153.6-340.8 340.8-340.8c187.2 0 340.8 153.6 340.8 340.8 0 188.8-153.6 340.8-340.8 340.8v0zM395.2 568c6.4 17.6 14.4 32 25.6 43.2s25.6 20.8 41.6 27.2c16 6.4 35.2 9.6 56 9.6 16 0 32-3.2 46.4-8s27.2-12.8 38.4-20.8 19.2-20.8 25.6-33.6c6.4-12.8 9.6-28.8 9.6-46.4 0-22.4-4.8-40-14.4-56s-22.4-30.4-36.8-44.8c-12.8-12.8-22.4-22.4-28.8-28.8-8-6.4-12.8-14.4-16-20.8s-6.4-14.4-6.4-24c-1.6-9.6-1.6-16-1.6-33.6h-36.8c0 17.6 0 25.6 3.2 36.8 1.6 12.8 6.4 22.4 11.2 33.6 4.8 9.6 12.8 19.2 20.8 28.8 9.6 9.6 19.2 19.2 32 30.4 11.2 9.6 20.8 20.8 27.2 33.6 8 12.8 11.2 27.2 11.2 41.6 0 11.2-1.6 22.4-6.4 32s-11.2 17.6-17.6 25.6-16 12.8-27.2 16c-9.6 3.2-20.8 6.4-32 6.4-16 0-30.4-3.2-41.6-8-12.8-4.8-22.4-12.8-30.4-22.4s-14.4-20.8-17.6-33.6c-3.2-12.8-6.4-24-4.8-38.4h-36.8c-1.6 22.4 0 36.8 6.4 54.4v0zM491.2 288h44.8v-44.8h-44.8v44.8z" />
<glyph unicode="&#xe926;" glyph-name="home" d="M815.779-12.8h-607.598c-25.347 0-46.019 19.555-46.019 43.532v455.215l-79.096-74.651-26.066 24.827 441.677 417.805c3.415 3.401 8.269 5.271 13.123 5.271s9.527-1.871 13.123-5.271l441.677-417.805-26.066-24.827-78.736 73.63v-452.835c0.36-11.733-4.314-23.126-12.943-31.629-8.808-8.502-20.673-13.264-33.076-13.264zM640.87 22.060h174.909c5.033 0 9.168 3.911 9.168 8.672v489.225l-312.608 296.051-313.327-295.711v-489.565c0-4.761 4.135-8.672 9.168-8.672h174.909v200.145c0 24.147 20.673 43.532 46.019 43.532h165.741c25.347 0 46.019-19.385 46.019-43.532v-200.145zM419.941 22.060h184.077v200.145c0 4.931-4.135 8.842-9.168 8.842h-165.741c-5.033 0-9.168-3.911-9.168-8.842v-200.145z" />
<glyph unicode="&#xe927;" glyph-name="hour-glass" d="M860.2 813.4v58.5h81.8v36.9h-860v-36.9h81.8v-58.5c0-129.060 70.4-193.68 127.4-244.8 43.4-39.42 77.4-70.92 77.4-120.6s-34-81.18-77.4-120.6c-57-51.48-127.4-115.74-127.4-244.8v-58.5h-81.8v-36.9h860v36.9h-81.8v58.5c0 129.060-70.4 193.32-127.4 244.8-43.4 39.42-77.4 70.38-77.4 120.6s34 81.18 77.4 120.6c57 51.48 127.4 115.74 127.4 244.8zM614.4 448c0-65.16 43.4-104.76 89.2-147.42 57-51.66 115.6-105.12 115.6-219.060v-57.42h-614.4v58.5c0 113.94 58.6 167.4 115.6 219.060 45.8 41.58 89.2 81.18 89.2 147.42 0 66.42-43.4 104.76-89.2 147.42-57 49.5-115.6 102.96-115.6 216.9v58.5h614.4v-58.5c0-113.94-58.6-167.4-115.6-219.060-45.8-41.58-89.2-81.18-89.2-146.34z" />
<glyph unicode="&#xe928;" glyph-name="inbox" d="M916.275 309.453v0.41l-104.499 521.779c-2.355 12.288-13.056 21.146-25.6 21.146h-535.347c-12.288 0-22.886-8.499-25.498-20.48l-117.504-522.342c-0.41-1.792-0.666-3.635-0.666-5.478v-235.162c0-14.336 11.725-26.112 26.112-26.112h757.35c14.336 0 26.112 11.725 26.112 26.112v235.162c0.051 1.69-0.051 3.379-0.461 4.966zM271.872 800.563h492.8l94.31-469.965h-229.427c-14.336 0-26.112-11.725-26.112-26.163 0-35.994-55.347-79.155-91.392-79.155s-91.392 43.162-91.392 79.155c0 14.387-11.725 26.163-26.112 26.163h-228.71l106.035 469.965zM864.563 95.437h-705.126v182.886h211.763c12.032-52.275 84.89-104.038 140.8-104.038s128.768 51.814 140.749 104.038h211.814v-182.886z" />
<glyph unicode="&#xe929;" glyph-name="info" d="M513.382 888.243c-242.215 0-438.861-196.646-438.861-438.861s196.646-438.861 438.861-438.861c242.215 0 438.861 196.646 438.861 438.861s-196.646 438.861-438.861 438.861zM513.382 851.671c222.027 0 402.29-180.262 402.29-402.29s-180.262-402.29-402.29-402.29-402.29 180.262-402.29 402.29 180.262 402.29 402.29 402.29zM531.668 229.951v329.146h-36.572v-329.146h36.572zM513.382 668.812c-17.042 0-30.903-13.824-30.903-30.903 0-17.042 13.861-30.867 30.903-30.867s30.903 13.824 30.903 30.867c0 17.079-13.861 30.903-30.903 30.903z" />
<glyph unicode="&#xe92a;" glyph-name="key" d="M954.328-12.8h-184.297c-10.259 0-18.538 8.28-18.538 18.36v92.16h-92.149c-10.079 0-18.358 8.28-18.358 18.54v92.16h-92.149c-10.259 0-18.538 8.28-18.538 18.36v92.16h-62.992c-4.859 0-9.359 1.8-12.778 5.22l-45.714 43.92c-26.277-8.1-53.633-12.24-81.17-12.24-152.621 0-276.446 123.84-276.446 276.48s123.825 276.48 276.446 276.48c152.621 0 276.446-123.84 276.446-276.48 0-19.98-2.34-39.96-6.659-59.4l368.594-368.64c3.42-3.42 5.399-7.92 5.579-12.78v-184.32c0.36-5.040-1.26-9.9-4.499-13.68s-7.919-5.94-12.778-6.3zM788.388 24.1h147.402v158.040l-371.834 372.060c-4.679 4.68-6.479 11.34-4.859 17.64 25.917 99.18-14.218 203.94-99.708 260.46-85.669 56.52-197.615 52.2-278.785-10.44-80.99-62.82-113.206-170.28-79.91-267.12 33.116-97.020 124.365-162.18 226.952-162 27.177 0 53.993 4.86 79.55 14.040 6.659 2.16 13.858 0.54 18.898-4.14l48.594-46.8h73.791c10.079 0 18.358-8.28 18.358-18.36v-92.16h92.149c10.259 0 18.538-8.28 18.538-18.54v-92.16h92.149c10.079 0 18.358-8.28 18.358-18.36l0.36-92.16zM272.392 577.060c-61.192 0-110.686 49.5-110.686 110.52 0 61.2 49.494 110.7 110.686 110.7 61.012 0 110.506-49.5 110.506-110.7 0-61.020-49.494-110.52-110.506-110.52zM272.392 761.38c-40.675 0-73.791-33.12-73.791-73.8s33.116-73.62 73.791-73.62c40.675 0 73.611 32.94 73.611 73.62s-32.936 73.8-73.611 73.8z" />
<glyph unicode="&#xe92b;" glyph-name="launch" d="M475.2 374.4l-36.8 36.8 412.8 411.2 35.2-35.2-411.2-412.8zM896 558.4h-54.4v219.2h-219.2v54.4h273.6v-273.6zM758.4 64h-548.8c-44.8 0-81.6 36.8-81.6 81.6v548.8c0 44.8 36.8 81.6 81.6 81.6h302.4v-54.4h-302.4c-14.4 0-27.2-12.8-27.2-27.2v-548.8c0-14.4 12.8-27.2 27.2-27.2h548.8c14.4 0 27.2 12.8 27.2 27.2v302.4h54.4v-302.4c1.6-44.8-35.2-81.6-81.6-81.6z" />
<glyph unicode="&#xe92c;" glyph-name="layers" d="M512-64c-15.6-0.2-30.8 3.8-44.2 11.4l-444 268c-15.2 6.4-25 21.2-25 37.6s9.8 31.2 25 37.8l95 58.4-95 57c-15.2 6.4-25 21.2-25 37.8 0 16.4 9.8 31.2 25 37.6l95 58.6-95 57.4c-14 7.4-23 21.8-23.8 37.6 0.4 16 9.4 30.4 23.4 38l444.8 275c27.2 15.4 60.4 15.4 87.6 0l444.8-275c14-7.6 23-22 23.4-38-0.8-15.8-9.8-30.2-23.8-37.6l-94.6-57 95-58.6c15.4-6.4 25.4-21.2 25.4-37.8 0-16.8-10-31.6-25.4-38l-94.6-57 95-58.4c15.2-6.6 25-21.4 25-37.8s-9.8-31.2-25-37.6l-444.8-267.6c-13.4-7.8-28.6-11.8-44.2-11.8zM41 253l3.6-2.4 444-267.4c14.4-7.4 31.6-7.4 46 0l444.4 267c1.4 0.6 2.6 1.6 3.6 2.8l-3.2 2.4-113 69.8-310.2-184.4c-27.4-15-60.6-15-88 0l-310.6 184.8-113-69.8zM41 444l3.6-2.6 444-267.4c14.4-7.4 31.6-7.4 46 0l444.4 267.4c1.4 0.8 2.6 2 3.6 3.4l-3.6 2.4-113.2 69.6-310.4-186.8c-27.4-15.2-60.6-15.2-88 0l-309.8 186.8-113-69.6c-1.4-0.8-2.6-2-3.6-3.2zM41 635.2l4-2.8 444-267.6c14.4-7.2 31.6-7.2 46 0l444 267.6c1.6 0.8 2.8 1.8 4 3.2l-3.6 2.8-447 275c-14 7.2-30.6 7.2-44.6 0l-442.8-275.4c-1.4-0.6-2.8-1.6-4-2.8z" />
<glyph unicode="&#xe92d;" glyph-name="leaf" d="M128.925 18.599h-40.835c-22.889 0-35.342 0-42.3 7.503-3.662 4.392-4.944 10.065-3.845 15.737 17.030 80.335 42.85 158.657 76.909 233.502-58.414 59.29-86.248 142.37-75.078 224.718 16.846 115.47 104.010 230.575 227.613 297.368 216.443 120.594 457.974 107.784 698.771-34.952 5.127-3.477 8.241-9.333 8.241-15.555s-3.113-12.078-8.241-15.555c-66.105-51.787-90.459-119.13-115.912-190.681-19.044-64.963-49.991-125.718-91.558-179.153-104.925-125.535-355.062-243.201-536.896-163.415-23.622-52.703-41.201-107.601-52.555-164.147-2.563-13.176-3.479-15.372-44.314-15.372zM83.878 56.113h55.118c12.635 55.997 30.764 110.712 54.385 162.866l5.31 12.444c2.014 4.758 6.043 8.601 10.987 10.431 4.761 1.647 10.254 1.281 14.832-1.098 164.255-86.923 412.561 28.181 509.429 145.481 38.271 50.324 67.021 107.235 84.6 167.807 19.227 71.917 56.766 137.429 108.771 190.498-159.311 88.753-392.235 157.376-637.427 21.411-112.617-63.134-193.188-165.794-208.203-268.454-9.522-66.793 10.804-134.502 55.484-185.192 60.429 113.64 151.437 207.883 262.589 272.48l19.044-32.207c-216.261-129.561-292.437-321.523-334.92-496.467z" />
<glyph unicode="&#xe92e;" glyph-name="like" d="M497.613 85.862l-335.974 333.312c-13.824 13.722-25.805 29.030-35.635 45.466-55.091 91.392-40.499 207.974 35.533 283.392 44.237 43.827 103.014 68.045 165.53 68.045 98.509 0 159.488-57.344 184.934-89.702 25.549 32.461 86.477 89.702 184.934 89.702 62.515 0 121.293-24.166 165.53-68.045 75.981-75.418 90.675-192 35.482-283.494-9.728-16.384-21.76-31.642-35.584-45.414l-335.974-333.312c-7.987-7.936-20.787-7.936-28.774 0.051zM327.066 775.168c-51.661 0-100.198-19.968-136.755-56.166-62.566-62.106-74.65-158.054-29.286-233.37 8.090-13.568 17.971-26.112 29.389-37.427l321.587-319.078 321.587 319.078c11.469 11.315 21.299 23.859 29.338 37.325 45.414 75.366 33.331 171.315-29.235 233.472-36.506 36.198-85.094 56.166-136.755 56.166-73.216 0-135.117-40.243-167.322-95.386-7.885-13.517-27.443-13.517-35.328 0-32 55.091-93.901 95.386-167.219 95.386z" />
<glyph unicode="&#xe92f;" glyph-name="link" d="M843.213 503.091l-123.597-123.546c-7.987-7.987-20.89-7.987-28.877 0-7.987 7.936-7.987 20.89 0 28.826l123.597 123.597c60.16 60.16 60.16 158.054 0 218.214-29.184 29.133-67.891 45.21-109.158 45.21s-79.974-16.026-109.158-45.21l-123.597-123.546c-60.16-60.16-60.16-158.054 0-218.266 14.746-14.746 31.949-26.163 51.046-33.894 10.445-4.25 15.514-16.128 11.264-26.624-8.755-21.606-32.922-8.704-26.624-11.264-24.218 9.779-45.978 24.269-64.614 42.906-76.134 76.032-76.134 199.885 0 276.019l123.597 123.546c36.864 36.864 85.914 57.19 138.035 57.19s101.171-20.275 138.035-57.19c76.134-76.083 76.134-199.885 0.051-275.968zM515.891 559.36c-10.496 4.25-22.374-0.819-26.624-11.264-4.25-10.496 0.819-22.374 11.264-26.624 19.149-7.731 36.301-19.149 51.046-33.894 60.211-60.211 60.211-158.106 0-218.266l-123.597-123.546c-29.133-29.133-67.891-45.21-109.107-45.21s-79.974 16.026-109.158 45.21c-60.16 60.16-60.16 158.054 0 218.214l123.597 123.597c7.987 7.936 7.987 20.89 0 28.877s-20.89 7.987-28.877 0l-123.597-123.597c-76.134-76.032-76.134-199.885 0-276.019 36.864-36.864 85.914-57.139 138.035-57.139s101.171 20.275 138.035 57.139l123.597 123.546c76.134 76.083 76.134 199.936 0 276.070-18.637 18.688-40.346 33.075-64.614 42.906z" />
<glyph unicode="&#xe930;" glyph-name="location" d="M512.051 625.152c-40.602 0-73.626-33.024-73.626-73.626 0-40.55 33.024-73.472 73.626-73.472 40.499 0 73.472 32.973 73.472 73.472 0.051 40.653-32.973 73.626-73.472 73.626zM512.051 527.155c-13.517 0-24.525 10.906-24.525 24.371 0 13.568 11.008 24.525 24.525 24.525 13.466 0 24.422-10.957 24.422-24.525 0-13.466-10.906-24.371-24.422-24.371zM512 805.325c-144.128 0-261.427-117.299-261.427-261.427 0-39.987 9.626-79.309 28.774-116.838 0.563-3.174 1.843-6.144 3.584-8.909l6.4-9.626c3.789-6.298 7.731-12.39 11.52-17.459l190.822-289.28c4.506-6.912 12.186-11.008 20.429-11.008s15.923 4.096 20.48 11.008l192.102 290.816c2.918 4.096 5.478 8.141 7.834 11.878l6.758 10.189c1.69 2.56 2.765 5.325 3.277 8.141 20.531 38.758 30.976 79.411 30.976 121.139-0.051 144.077-117.402 261.376-261.53 261.376zM696.115 440.218c-0.87-1.536-1.485-3.174-1.997-4.864l-2.867-4.301c-2.202-3.379-4.352-6.81-7.117-10.803l-172.134-260.454-170.957 259.123c-3.482 4.864-6.758 9.882-10.394 15.821l-2.611 3.994c-0.461 1.587-1.075 3.123-1.946 4.557-17.562 32.461-26.47 66.355-26.47 100.608 0 117.094 95.283 212.378 212.326 212.378 117.146 0 212.429-95.283 212.429-212.378 0-35.635-9.472-70.451-28.262-103.68z" />
<glyph unicode="&#xe931;" glyph-name="map" d="M926.31 696.986l-203.93 75.059c4.301-2.15-6.298 4.096-14.49 0h-0.307l-195.584-72.090-195.994 72.090c3.891-1.946-5.837 3.891-14.592 0h-0.154l-203.571-75.059c-7.731-3.174-12.8-10.598-12.8-18.893v-535.091c0-35.379 45.005-12.493 27.904-18.893l196.045 71.987 195.635-71.987c9.523-3.174 19.712 1.485 15.053 0l195.686 71.987 196.096-71.987c13.312-5.12 27.802 4.096 27.802 18.893v535.091c0 8.294-5.12 15.718-12.8 18.893zM288.41 231.885l-162.867-58.88v491.264l162.867 58.88v-491.264zM491.622 173.005l-162.458 58.88v491.264l162.458-58.88v-491.264zM694.784 231.885l-162.458-58.88v491.264l162.458 58.88v-491.264zM898.406 173.005l-162.918 58.88v491.264l162.918-58.88v-491.264z" />
<glyph unicode="&#xe932;" glyph-name="minimize" d="M976.955 904.863c-6 6-15.818 6-22 0l-345.818-345.818v272.727c0 8.545-6.909 15.636-15.455 15.636-8.727 0-15.636-7.091-15.636-15.636v-310.182c0-2 0.545-4.182 1.273-6 1.636-3.818 4.545-6.727 8.364-8.364 1.818-0.727 4-1.273 6-1.273h310.182c8.727 0 15.636 7.091 15.636 15.636s-6.909 15.455-15.636 15.455h-272.727l345.818 345.818c6 6.182 6 16 0 22zM444.41 380.681c-1.818 0.727-4 1.273-6 1.273h-310.182c-8.727 0-15.636-7.091-15.636-15.636s6.909-15.455 15.636-15.455h272.727l-345.818-345.818c-6-6.182-6-16 0-22 3.091-3.091 6.909-4.545 10.909-4.545s8 1.455 11.091 4.545l345.818 345.818v-272.727c0-8.545 6.909-15.636 15.455-15.636 8.727 0 15.636 7.091 15.636 15.636v310.182c0 2-0.545 4.182-1.273 6-1.636 3.818-4.545 6.727-8.364 8.364z" />
<glyph unicode="&#xe933;" glyph-name="minus-circle" d="M756.531 448c0-12.237-9.984-22.221-22.272-22.221h-444.57c-12.237 0-22.221 9.984-22.221 22.221s9.984 22.221 22.221 22.221h444.621c12.237 0 22.221-10.035 22.221-22.221zM934.4 448c0-233.37-189.082-422.4-422.4-422.4s-422.4 188.979-422.4 422.4c0 233.318 189.082 422.4 422.4 422.4s422.4-189.082 422.4-422.4zM889.958 448c0 208.435-169.574 377.907-377.958 377.907-208.435 0-377.907-169.523-377.907-377.907s169.523-377.958 377.907-377.958c208.384-0.051 377.958 169.574 377.958 377.958z" />
<glyph unicode="&#xe934;" glyph-name="paper-plane" d="M881.562 843.878l-754.739-313.344c-17.766-7.526-16.026-33.894 3.328-38.195l347.546-78.643 78.592-347.494c4.25-19.302 30.822-21.248 38.144-3.328l313.498 754.688c6.81 16.486-9.933 33.178-26.368 26.317zM200.704 517.581l602.726 250.368-315.238-315.29-287.488 64.922zM581.53 136.806l-64.922 287.386 315.238 315.238-250.317-602.624z" />
<glyph unicode="&#xe935;" glyph-name="plus-circle" d="M748.186 448c0-11.776-9.626-21.453-21.453-21.453h-193.229v-193.229c0-11.776-9.677-21.504-21.504-21.504s-21.453 9.677-21.453 21.504v193.229h-193.28c-11.776 0-21.453 9.677-21.453 21.453s9.677 21.453 21.453 21.453h193.28v193.28c0 11.776 9.677 21.453 21.453 21.453s21.504-9.677 21.504-21.453v-193.28h193.229c11.827 0 21.453-9.677 21.453-21.453zM920.013 448c0-225.331-182.63-408.013-408.013-408.013s-408.013 182.63-408.013 408.013c0 225.382 182.63 408.013 408.013 408.013 225.331 0 408.013-182.63 408.013-408.013zM877.056 448c0 201.318-163.738 365.056-365.056 365.056s-365.056-163.738-365.056-365.056c0-201.37 163.738-365.056 365.056-365.056s365.056 163.686 365.056 365.056z" />
<glyph unicode="&#xe936;" glyph-name="printer" d="M893.594 310.221v254.362zM893.594 310.221v254.362zM88.013 310.221v254.362zM935.987 310.221v254.362zM649.779 320.819h-275.558c-11.674 0-21.197-9.574-21.197-21.197s9.574-21.197 21.197-21.197h275.61c11.725 0 21.197 9.574 21.197 21.197s-9.523 21.197-21.248 21.197zM649.779 214.784h-275.558c-11.674 0-21.197-9.574-21.197-21.197s9.574-21.197 21.197-21.197h275.61c11.725 0 21.197 9.574 21.197 21.197s-9.523 21.197-21.248 21.197zM649.779 320.819h-275.558c-11.674 0-21.197-9.574-21.197-21.197s9.574-21.197 21.197-21.197h275.61c11.725 0 21.197 9.574 21.197 21.197s-9.523 21.197-21.248 21.197zM649.779 214.784h-275.558c-11.674 0-21.197-9.574-21.197-21.197s9.574-21.197 21.197-21.197h275.61c11.725 0 21.197 9.574 21.197 21.197s-9.523 21.197-21.248 21.197zM649.779 214.784h-275.558c-11.674 0-21.197-9.574-21.197-21.197s9.574-21.197 21.197-21.197h275.61c11.725 0 21.197 9.574 21.197 21.197s-9.523 21.197-21.248 21.197zM649.779 320.819h-275.558c-11.674 0-21.197-9.574-21.197-21.197s9.574-21.197 21.197-21.197h275.61c11.725 0 21.197 9.574 21.197 21.197s-9.523 21.197-21.248 21.197zM374.221 278.426h275.61c11.725 0 21.197 9.574 21.197 21.197s-9.523 21.197-21.197 21.197h-275.61c-11.674 0-21.197-9.574-21.197-21.197s9.523-21.197 21.197-21.197zM649.779 214.784h-275.558c-11.674 0-21.197-9.574-21.197-21.197s9.574-21.197 21.197-21.197h275.61c11.725 0 21.197 9.574 21.197 21.197s-9.523 21.197-21.248 21.197zM851.2 649.421h-74.189v148.378c0 11.674-9.523 21.197-21.197 21.197h-487.629c-11.674 0-21.197-9.574-21.197-21.197v-148.378h-74.189c-46.746 0-84.787-38.042-84.787-84.787v-254.413c0-46.746 38.042-84.787 84.787-84.787h74.189v-127.181c0-11.674 9.574-21.197 21.197-21.197h487.578c11.725 0 21.197 9.574 21.197 21.197v127.181h74.189c46.694 0 84.787 38.042 84.787 84.787v254.362c0.051 46.746-38.042 84.838-84.736 84.838zM289.382 776.602h445.184v-127.181h-445.184v127.181zM734.618 119.398h-445.235v254.413h445.184v-254.413zM893.594 310.221c0-23.45-18.995-42.394-42.394-42.394h-74.189v127.181c0 11.674-9.523 21.197-21.197 21.197h-487.629c-11.674 0-21.197-9.523-21.197-21.197v-127.181h-74.189c-23.45 0-42.394 18.944-42.394 42.394v254.362c0 23.45 18.995 42.394 42.394 42.394h678.4c23.398 0 42.394-18.995 42.394-42.394v-254.362zM374.221 278.426h275.61c11.725 0 21.197 9.574 21.197 21.197s-9.523 21.197-21.197 21.197h-275.61c-11.674 0-21.197-9.574-21.197-21.197s9.523-21.197 21.197-21.197zM374.221 172.39h275.61c11.725 0 21.197 9.574 21.197 21.197s-9.523 21.197-21.197 21.197h-275.61c-11.674 0-21.197-9.574-21.197-21.197s9.523-21.197 21.197-21.197zM649.779 214.784h-275.558c-11.674 0-21.197-9.574-21.197-21.197s9.574-21.197 21.197-21.197h275.61c11.725 0 21.197 9.574 21.197 21.197s-9.523 21.197-21.248 21.197zM649.779 320.819h-275.558c-11.674 0-21.197-9.574-21.197-21.197s9.574-21.197 21.197-21.197h275.61c11.725 0 21.197 9.574 21.197 21.197s-9.523 21.197-21.248 21.197zM649.779 320.819h-275.558c-11.674 0-21.197-9.574-21.197-21.197s9.574-21.197 21.197-21.197h275.61c11.725 0 21.197 9.574 21.197 21.197s-9.523 21.197-21.248 21.197zM649.779 214.784h-275.558c-11.674 0-21.197-9.574-21.197-21.197s9.574-21.197 21.197-21.197h275.61c11.725 0 21.197 9.574 21.197 21.197s-9.523 21.197-21.248 21.197z" />
<glyph unicode="&#xe937;" glyph-name="reply" d="M165.888 575.488c-7.475-7.27-7.475-19.507 0-26.778l266.189-265.882c11.981-12.186 32.41-3.277 32.41 13.414v134.861c5.376 0.358 10.854 0.563 16.435 0.563 121.498 0 220.262-97.792 220.262-218.010 0-48.998-16.896-92.621-51.61-133.222-13.261-15.718 4.301-39.014 23.091-29.286 119.603 61.184 190.976 174.49 190.976 303.309 0 191.539-158.874 347.29-354.099 347.29-15.718 0-31.488-1.434-45.107-3.226v129.638c0 16.742-20.378 25.6-32.41 13.363l-266.138-266.035zM206.182 562.125l220.211 220.16v-106.138c0-11.878 10.752-20.941 22.579-18.739 15.258 2.867 38.195 6.298 60.621 6.298 174.182 0 316.006-138.701 316.006-309.299 0-86.784-36.762-165.888-101.325-222.822 9.882 26.112 15.002 53.504 15.002 82.022 0 141.312-116.019 256-258.355 256-13.107 0-27.034-0.922-38.246-2.56-9.267-1.28-16.282-9.318-16.282-18.79v-106.189l-220.211 220.058z" />
<glyph unicode="&#xe938;" glyph-name="resize" d="M977.334 894.646c-1.436 3.669-4.488 6.639-8.259 8.037-1.795 0.874-3.77 1.223-5.745 1.223h-306.464c-8.438 0-15.26-6.639-15.26-14.851s6.822-15.026 15.26-15.026h269.48l-341.653-332.319c-5.925-5.766-5.925-15.201 0-21.141 3.052-2.796 7.002-4.368 10.952-4.368s7.72 1.573 10.772 4.368l341.473 332.494v-262.256c0-8.212 6.822-14.851 15.44-14.851 8.438 0 15.26 6.639 15.26 14.851v298.249c0 1.922-0.359 3.844-1.257 5.591zM418.636 375.396l-327.734-334.78v264.059c0 8.268-6.548 14.953-14.819 14.953-8.099 0-14.646-6.685-14.646-14.953v-300.299c0-1.935 0.345-3.87 1.206-5.629 1.378-3.694 4.308-6.685 7.926-8.092 1.723-0.88 3.619-1.231 5.514-1.231h294.134c8.099 0 14.646 6.685 14.646 14.953s-6.548 15.129-14.646 15.129h-258.638l327.906 334.604c5.686 5.805 5.686 15.305 0 21.287-5.859 5.805-15.163 5.805-20.85 0z" />
<glyph unicode="&#xe939;" glyph-name="search" d="M989.6-57.4l-339.2 339.2c-157-141.2-397.8-131.8-543 21.4-145.4 153.2-142.2 394.2 7 543.6 149.4 149.2 390.4 152.4 543.6 7.2 153.2-145.4 162.8-386.2 21.6-543.2l339-339.2zM390.4 919c-141 0.6-268.4-84-322.6-214s-24.8-280 74.6-379.8c99.6-99.8 249.4-130 379.6-76 130.4 53.8 215.2 180.8 215.2 321.6-0.2 191.8-155.2 347.4-346.8 348.2z" />
<glyph unicode="&#xe93a;" glyph-name="settings" d="M551.4-64h-78.8c-24.2 0.4-45 17.2-50.4 41l-12.6 66.4c-5.8 23.6-22.4 43-45 52.4-22.4 9.4-48 7.6-68.8-5l-50-38c-21-14.8-49.6-12.2-67.6 6l-55.4 55c-18.4 18-21 46.8-6 68l38 53.2c11.2 20.6 12.4 45.2 3.2 66.8-9.4 21.6-28 37.8-50.6 43.8l-66.4 12.2c-23.8 5.4-40.6 26.2-41 50.4v79.2c0.2 24.4 17.2 45.4 41 50.8l66.4 12.2c23 6 42.2 22.4 51.4 44.4 9.4 22 7.8 47-4 67.8l-38 51.6c-15 21.2-12.4 50 6 68l55.4 55c18 18.2 46.6 20.8 67.6 6l53.2-38c20.6-11.2 45.2-12.4 66.8-3.2 21.6 9.4 37.8 28 43.8 50.6l12.2 66.4c5.4 23.8 26.2 40.6 50.4 41h79.2c24.4-0.2 45.4-17.2 50.8-41l12.2-66.4c6.6-23.2 23-42.4 45-52.4 22.6-8.8 48-6.8 68.8 5.4l50 37.6c21 14.8 49.6 12.2 67.6-6l55.4-55c18.4-18 21-46.8 6-68l-38-53.2c-11.2-20.6-12.4-45.2-3.2-66.8 9.4-21.6 28-37.8 50.6-43.8l66.4-12.2c23.8-5.4 40.6-26.2 41-50.4v-79.2c-0.4-24.2-17.2-45-41-50.4l-66.4-12.6c-23.6-5.8-43-22.4-52.4-45-9.4-22.4-7.6-48 5-68.8l38-53.4c13.2-20.4 10.8-47-6-64.6l-55.4-55c-18-17-45.4-19.4-66-5.2l-53.2 38c-20.8 12-46 13.2-68.2 3.8-22-9.4-38.2-28.8-44-52l-12.2-66.4c-5.4-23.8-26.4-40.8-50.8-41zM336.2 140.8c54.8 0.6 102.4-37.2 114.4-90.6l10.6-64.6c1.2-4.8 5.4-8.2 10.2-8.6h79.2c4.8 0.4 9 3.8 10.2 8.6l12.6 64.2c8 37.8 34 69.2 69.6 84s76.2 11.2 108.6-9.8l53.2-38c4-2.8 9.2-2.8 13.2 0l55.6 55.6c2.8 4 2.8 9.2 0 13.2l-38 53.2c-21.2 32.4-24.8 73.2-10 108.8 14.8 35.8 46.2 61.8 84.2 69.8l64.6 10.6c4.8 1.2 8.2 5.4 8.6 10.2v80c-0.4 4.8-3.8 9-8.6 10.2l-64.6 11.8c-37.8 8-69.2 34-84 69.6s-11.2 76.2 9.8 108.6l38 53.2c2.8 4 2.8 9.2 0 13.2l-56.4 54.8c-4 2.8-9.2 2.8-13.2 0l-53.2-38c-32.4-20.6-73-24-108.4-9-35.2 15-61 46.4-69 84l-10.6 64.6c-1.4 5.2-6.2 8.8-11.4 8.6h-78.8c-4.8-0.4-9-3.8-10.2-8.6l-11.8-64.2c-8.2-37.4-34-68.4-69.2-83.2s-75.4-11.4-107.8 9l-53.2 38c-4 2.8-9.2 2.8-13.2 0l-56-56.8c-2.8-4-2.8-9.2 0-13.2l38-53.2c20.6-32.4 24-73 9-108.4-15-35.2-46.4-61-84-69l-64.6-10.6c-4.8-1.2-8.2-5.4-8.6-10.2v-79.2c0.4-4.8 3.8-9 8.6-10.2l64.6-12.6c37.8-8 69.2-34 84-69.6s11.2-76.2-9.8-108.6l-38-53.2c-2.8-4-2.8-9.2 0-13.2l56-55.6c4-2.8 9.2-2.8 13.2 0l53.2 38c19 11.8 41.2 17.6 63.4 16.4zM512 222.8c-124.4 0-225.2 100.8-225.2 225.2s100.8 225.2 225.2 225.2c124.4 0 225.2-100.8 225.2-225.2-0.2-124.4-100.8-225-225.2-225.2zM512 632.4c-101.8 0-184.4-82.6-184.4-184.4s82.6-184.4 184.4-184.4c101.8 0 184.4 82.6 184.4 184.4s-82.6 184.4-184.4 184.4z" />
<glyph unicode="&#xe93b;" glyph-name="share" d="M751.616 313.805c-46.080 0-87.142-22.016-113.459-55.808l-232.909 135.014c14.541 35.379 14.541 74.598 0 109.875l232.909 135.066c26.317-33.843 67.328-55.808 113.459-55.808 79.309 0 143.821 64.512 143.821 143.77s-64.512 143.821-143.821 143.821c-79.258 0-143.77-64.512-143.77-143.821 0-19.456 3.891-37.939 10.957-54.938l-232.96-135.066c-26.368 33.843-67.379 55.808-113.51 55.808-79.258 0-143.77-64.512-143.77-143.821s64.512-143.77 143.77-143.77c46.080 0 87.142 22.016 113.51 55.808l232.96-135.014c-7.066-16.998-10.957-35.482-10.957-54.989 0-79.309 64.512-143.821 143.77-143.821 79.309 0 143.821 64.512 143.821 143.821s-64.512 143.872-143.821 143.872zM751.616 831.386c58.163 0 105.472-47.258 105.472-105.472s-47.36-105.37-105.472-105.37-105.421 47.258-105.421 105.421 47.258 105.421 105.421 105.421zM272.333 342.477c-58.163 0-105.472 47.309-105.472 105.472s47.258 105.421 105.472 105.421c58.112 0 105.472-47.258 105.472-105.421s-47.36-105.472-105.472-105.472zM751.616 64.614c-58.163 0-105.421 47.206-105.421 105.421s47.258 105.523 105.421 105.523 105.472-47.309 105.472-105.523-47.36-105.421-105.472-105.421z" />
<glyph unicode="&#xe93c;" glyph-name="star" d="M905.421 554.24l-262.707 34.304-113.869 239.872c-6.707 14.080-26.982 14.080-33.69 0l-113.869-239.872-262.707-34.304c-15.462-1.997-21.709-20.89-10.394-31.488l192.512-182.682-48.589-261.222c-2.867-15.206 13.363-26.88 27.29-19.405l232.602 126.976 232.602-126.925c13.978-7.834 30.054 4.557 27.29 19.405l-48.589 261.274 192.512 182.682c11.315 10.496 5.069 29.389-10.394 31.386zM690.227 359.782c-4.557-4.25-6.605-10.496-5.376-16.589l43.418-232.806-207.206 113.050c-2.816 1.536-5.939 2.304-9.011 2.304s-6.246-0.768-9.011-2.304l-207.206-113.050 43.366 232.806c1.178 6.093-0.819 12.339-5.376 16.589l-171.93 162.97 234.394 30.669c6.349 0.819 11.725 4.762 14.438 10.394l101.274 213.504 101.274-213.504c2.714-5.632 8.090-9.574 14.438-10.394l234.394-30.618-171.878-163.021z" />
<glyph unicode="&#xe93d;" glyph-name="tag" d="M473.685-12.8c-17.82 0-34.92 7.020-47.521 19.621l-354.964 355.334c-12.6 12.061-19.8 28.981-19.8 46.442s7.2 34.201 19.8 46.442l420.125 416.897c26.82 23.401 61.021 36.541 96.661 36.901h326.164c16.020 1.8 31.86-3.78 43.381-15.121 11.34-11.34 16.92-27.181 15.3-43.202v-326.173c-0.36-35.641-13.5-69.843-36.9-96.664l-414.365-420.497c-12.6-12.781-29.88-19.981-47.881-19.981zM96.941 429.658c-5.76-5.4-8.82-12.78-8.82-20.521s3.060-15.121 8.82-20.521l354.964-354.974c11.88-11.88 31.14-11.88 43.201 0l415.805 420.317c16.020 19.801 24.84 44.462 25.020 70.023v326.533c0 17.101-4.68 21.421-21.42 21.421h-326.524c-25.56 0-50.401-8.64-70.381-24.661l-420.665-417.617zM714.708 540.182c-61.021 0-110.521 49.502-110.521 110.524 0 61.202 49.501 110.704 110.521 110.704 61.201 0 110.701-49.502 110.701-110.704 0-61.022-49.501-110.524-110.701-110.524zM714.708 724.51c-40.68 0-73.621-32.941-73.621-73.803 0-40.682 32.94-73.623 73.621-73.623 40.86 0 73.801 32.941 73.801 73.623 0 40.862-32.94 73.803-73.801 73.803z" />
<glyph unicode="&#xe93e;" glyph-name="times-circle" d="M521.472 887.45c-242.739 0-439.45-196.71-439.45-439.45 0-242.688 196.71-439.398 439.45-439.398s439.45 196.71 439.45 439.398c0 242.739-196.71 439.45-439.45 439.45zM521.472 54.784c-216.832 0-393.165 176.384-393.165 393.216s176.333 393.165 393.165 393.165 393.165-176.333 393.165-393.165c0-216.781-176.333-393.216-393.165-393.216zM554.189 448l145.51 145.613c9.114 9.011 9.114 23.552 0 32.614-9.062 9.114-23.603 9.114-32.614 0l-145.613-145.459-145.613 145.408c-9.011 9.114-23.552 9.114-32.614 0-9.114-9.011-9.114-23.603 0-32.614l145.51-145.562-145.459-145.613c-9.114-9.011-9.114-23.603 0-32.614 9.114-9.114 23.501-9.114 32.614 0l145.613 145.459 145.613-145.459c9.114-9.114 23.501-9.114 32.614 0 9.114 9.011 9.114 23.603 0 32.614l-145.562 145.613z" />
<glyph unicode="&#xe93f;" glyph-name="times" d="M813.978 752.896c-13.875 13.926-36.506 13.926-50.483 0l-241.152-241.203-241.101 241.203c-13.926 13.926-36.557 13.926-50.483 0s-13.926-36.557 0-50.483l241.101-241.203-241.152-241.203c-13.926-13.875-13.926-36.506 0-50.483 6.963-6.963 16.077-10.394 25.19-10.394 9.165 0 18.278 3.43 25.242 10.394l241.203 241.203 241.152-241.203c7.014-6.963 16.077-10.394 25.293-10.394 9.114 0 18.176 3.43 25.19 10.394 13.978 13.978 13.978 36.608 0 50.483l-241.203 241.203 241.203 241.203c14.029 13.926 14.029 36.557 0 50.483z" />
<glyph unicode="&#xe940;" glyph-name="trash" d="M876.237 759.142h-234.957v76.595c0 12.902-10.598 23.501-23.552 23.501h-211.456c-12.902 0-23.501-10.598-23.501-23.501v-76.595h-235.008c-12.902 0-23.501-10.496-23.501-23.501 0-12.902 10.598-23.501 23.501-23.501h77.312v-651.878c0-12.902 10.598-23.501 23.501-23.501h526.848c13.005 0 23.501 10.598 23.501 23.501v651.878h77.363c12.902 0 23.501 10.598 23.501 23.501-0.051 13.056-10.65 23.501-23.552 23.501zM429.773 812.237h164.557v-47.002h-164.557v47.002zM751.923 83.763h-479.846v628.378h479.846v-628.378zM641.28 585.933v-376.013c0-12.902-10.598-23.501-23.552-23.501s-23.45 10.598-23.45 23.501v376.013c0 13.005 10.496 23.501 23.45 23.501s23.552-10.445 23.552-23.501zM429.773 585.933v-376.013c0-12.902-10.598-23.501-23.501-23.501s-23.501 10.598-23.501 23.501v376.013c0 13.005 10.598 23.501 23.501 23.501s23.501-10.445 23.501-23.501z" />
<glyph unicode="&#xe941;" glyph-name="upload" d="M292.6 630.8c4.6 0 9.4 1.8 12.8 5.4l188.4 188.2v-650.6c0-10.2 8.2-18.4 18.2-18.4s18.2 8.2 18.2 18.4v650.6l188.4-188.2c3.4-3.6 8.2-5.4 12.8-5.4 4.8 0 9.4 1.8 13 5.4 7.2 7.2 7.2 18.8 0 25.8l-219.4 219.4c-1.8 1.8-3.8 3.2-6 4-4.4 2-9.6 2-14 0-2.2-0.8-4.2-2.2-6-4l-219.4-219.4c-7.2-7-7.2-18.6 0-25.8 3.6-3.6 8.2-5.4 13-5.4zM1005.8 265.2c-10.2 0-18.4-8.2-18.4-18.4v-201h-950.8v201c0 10.2-8.2 18.4-18.4 18.4-10 0-18.2-8.2-18.2-18.4v-237.6h1024v237.6c0 10.2-8.2 18.4-18.2 18.4z" />
<glyph unicode="&#xe942;" glyph-name="user" d="M512 401.92c121.498 0 220.314 98.918 220.314 220.467 0 121.446-98.816 220.262-220.314 220.262s-220.365-98.867-220.365-220.262c0-121.6 98.867-220.467 220.365-220.467zM512 789.453c92.211 0 167.219-74.906 167.219-167.066 0-92.262-75.008-167.27-167.219-167.27-92.16 0-167.168 75.008-167.168 167.27 0 92.16 75.008 167.066 167.168 167.066zM512 319.846c-226.202 0-403.354-105.37-403.354-239.872 0-14.746 11.827-26.624 26.624-26.624 14.694 0 26.573 11.827 26.573 26.624 0 101.171 160.358 186.675 350.208 186.675 189.798 0 350.106-85.555 350.106-186.675 0-14.746 11.981-26.624 26.675-26.624s26.624 11.827 26.624 26.624c-0.051 134.502-177.254 239.872-403.456 239.872z" />
<glyph unicode="&#xe943;" glyph-name="wallet" d="M788.482 345.6c0-22.6-16.56-41-36.9-41s-36.9 18.4-36.9 41c0 22.6 16.56 41 36.9 41s36.9-18.4 36.9-41zM972.803 417.2v-143.2c0.72-25-14.94-46.6-36.9-51.2v-155.8c-0.9-27.4-21.24-49.2-46.080-49h-746.462c-50.94 0-92.16 45.8-92.16 102.4v614.4c0 56.4 41.22 102.4 92.16 102.4h672.842c25.38 0 46.080-23 46.080-51.2v-112.8h27.54c25.56 0 46.080-22.8 46.080-51.2v-155.6c21.24-4.4 36.72-25 36.9-49.2zM88.1 734.8c-0.18-16.8 5.94-32.8 16.92-44.4 10.26-11 24.12-17.2 38.34-17.2h682.022v41h-663.662v41h663.662v30.8c0 5.6-4.14 10.2-9.18 10.2h-672.842c-30.6 0-55.26-27.6-55.26-61.4zM899.002 222.8h-147.42c-61.020 0-110.52 55-110.52 122.8s49.5 122.8 110.52 122.8h147.42v153.6c0 5.8-4.14 10.4-9.18 10.4h-746.462c-19.98 0-39.42 7.6-55.26 21.2v-532.4c-0.18-16.4 5.58-32.4 15.84-44 10.44-11.8 24.66-18.4 39.42-18.4h746.462c5.040 0 9.18 4.6 9.18 10.4v153.6zM935.903 417.2c0 5.8-4.14 10.4-9.18 10.4h-175.141c-21.96 0.2-42.84-10.2-57.060-28.8-14.22-18.4-20.34-43.2-16.56-67.2 7.38-40.6 40.32-69.4 77.76-68h171.001c5.040 0 9.18 4.6 9.18 10.4v143.2z" />
<glyph unicode="&#xe944;" glyph-name="warning" d="M989.529 158.126c-64.364 122.169-172.14 295.548-267.27 448.477-49.83 80.048-96.829 155.551-130.804 213.053-16.044 27.090-44.545 43.345-76.255 43.345s-60.211-16.254-76.255-43.345c-33.975-57.502-81.163-133.18-130.993-213.228-94.942-152.93-202.907-326.133-267.082-448.302-5.851-11.186-8.871-22.896-8.871-34.955 0-44.393 38.694-80.572 86.259-80.572h793.883c47.565 0 86.259 36.179 86.259 80.572 0 12.060-3.020 23.77-8.871 34.955zM912.142 80.001h-793.695c-25.481 0-46.055 19.4-46.055 43.17 0 6.292 1.51 12.584 4.718 18.701 63.609 120.946 171.008 293.625 265.76 445.855 50.019 80.398 97.206 156.076 131.37 213.927 17.743 30.062 64.175 30.062 81.918 0 34.164-57.676 81.351-133.529 131.181-213.752 94.753-152.405 202.34-325.085 265.949-446.030 3.208-6.117 4.907-12.409 4.907-18.701 0-23.77-20.763-43.17-46.055-43.17zM515.2 704c-11.8 0-21.4-9.6-21.4-21.4v-426.6c0-11.8 9.6-21.4 21.4-21.4s21.4 9.6 21.4 21.4v426.6c0 11.8-9.6 21.4-21.4 21.4zM536.6 159.999c0-11.8-9.6-21.4-21.4-21.4s-21.4 9.6-21.4 21.4c0 11.8 9.6 21.4 21.4 21.4s21.4-9.6 21.4-21.4z" />
<glyph unicode="&#xe945;" glyph-name="webcamera" d="M917.453 722.79l-196.25-126.976v37.99c0 51.2-41.728 92.928-92.979 92.928h-464.845c-51.251 0-92.979-41.677-92.979-92.928v-371.763c0-51.251 41.728-92.928 92.979-92.928h464.845c51.251 0 92.979 41.677 92.979 92.928v37.837l196.25-126.874c21.914-11.571 36.147 8.038 36.147 19.302v511.181c0 11.418-12.851 32.358-36.147 19.302zM674.714 262.042c0-25.651-20.787-46.438-46.49-46.438h-464.845c-25.651 0-46.49 20.787-46.49 46.438v371.763c0 25.651 20.838 46.438 46.49 46.438h464.845c25.702 0 46.49-20.787 46.49-46.438v-371.763zM907.11 235.11l-185.907 120.218v185.19l185.907 120.218v-425.626z" />
<glyph unicode="&#xe946;" glyph-name="wifi" d="M512 99.8c-56.6 0-102.4 45.8-102.4 102.4s45.8 102.4 102.4 102.4c56.6 0 102.4-45.8 102.4-102.4s-45.8-102.4-102.4-102.4zM512 263.6c-34 0-61.4-27.4-61.4-61.4 0-33.8 27.4-61.4 61.4-61.4s61.4 27.6 61.4 61.4c0 34-27.4 61.4-61.4 61.4zM701.6 342c-48 54.4-117.2 85.6-189.8 85.6s-141.8-31.2-189.8-85.6l-30 27.8c55.8 62.8 135.8 98.6 219.8 98.6s164-35.8 219.8-98.6zM831.4 434.8c-78 97-195 154.4-319.4 156.6-124.4-2.2-241.4-59.6-319.4-156.6l-31.2 26.8c85.8 106 214.2 168.6 350.6 170.8 136.4-2.2 265-65 350.6-171.2zM968.2 557.8c-118.6 125.6-283.4 197-456.2 197.4-173-0.8-338-72.6-456.2-198.6l-29.6 28.6c126.2 134 301.8 210.2 485.8 211 184-0.8 359.6-77 485.8-211z" />
</font>
</defs>
</svg>
