<?xml version="1.0" standalone="no"?>
<!DOCTYPE svg PUBLIC "-//W3C//DTD SVG 1.1//EN" "http://www.w3.org/Graphics/SVG/1.1/DTD/svg11.dtd" >
<svg xmlns="http://www.w3.org/2000/svg">
<metadata>Generated by IcoMoon</metadata>
<defs>
<font id="icomoon" horiz-adv-x="1024">
<font-face units-per-em="1024" ascent="960" descent="-64" />
<missing-glyph horiz-adv-x="1024" />
<glyph unicode="&#x20;" horiz-adv-x="512" d="" />
<glyph unicode="&#xe900;" glyph-name="angle-down-circle" d="M714.854 505.088l-191.283-191.437c-4.403-4.403-10.291-6.656-16.077-6.656s-11.571 2.253-15.974 6.656l-182.374 182.272c-8.96 8.806-8.96 23.194-0.102 32.051 8.96 8.858 23.245 8.858 32.051 0l166.4-166.246 175.411 175.309c8.858 8.806 23.091 8.806 31.949 0 8.96-8.858 8.96-23.091 0-31.949zM942.387 448c0-237.773-192.666-430.387-430.387-430.387s-430.387 192.614-430.387 430.387 192.614 430.387 430.387 430.387 430.387-192.614 430.387-430.387zM897.075 448c0 212.378-172.698 385.075-385.075 385.075s-385.075-172.749-385.075-385.075c0-212.326 172.749-385.075 385.075-385.075 212.378 0 385.075 172.749 385.075 385.075z" />
<glyph unicode="&#xe901;" glyph-name="angle-down" d="M514.588 365.41l-249.498 243.712c-15.872 15.514-41.165 15.206-56.576-0.614-15.565-15.821-15.002-41.114 0.614-56.576l278.17-271.616c15.872-15.514 41.216-15.155 56.576 0.614l271.718 278.17c7.578 7.782 11.418 17.92 11.418 28.006 0 10.394-4.096 20.787-12.083 28.621-15.821 15.514-41.114 15.104-56.525-0.614l-243.814-249.702z" />
<glyph unicode="&#xe902;" glyph-name="angle-left-circle" d="M601.037 245.146c-4.454-4.403-10.189-6.707-15.974-6.707-5.734 0-11.571 2.304-15.974 6.707l-191.386 191.283c-8.858 8.858-8.858 23.245 0 32.051l182.221 182.374c8.858 8.96 23.245 8.858 32.051 0 8.858-8.806 8.858-23.091 0-31.949l-166.298-166.4 175.36-175.411c8.806-8.858 8.806-23.091 0-31.949zM942.387 448c0-237.773-192.666-430.387-430.387-430.387s-430.387 192.614-430.387 430.387 192.614 430.387 430.387 430.387 430.387-192.614 430.387-430.387zM897.075 448c0 212.378-172.698 385.075-385.075 385.075s-385.075-172.749-385.075-385.075c0-212.378 172.749-385.075 385.075-385.075s385.075 172.698 385.075 385.075z" />
<glyph unicode="&#xe903;" glyph-name="angle-left" d="M429.466 445.491l243.712 249.498c15.514 15.872 15.206 41.165-0.614 56.576-15.821 15.565-41.114 15.002-56.576-0.614l-271.616-278.17c-15.514-15.872-15.155-41.216 0.614-56.576l278.17-271.718c7.782-7.578 17.92-11.418 28.006-11.418 10.394 0 20.787 4.096 28.621 12.083 15.514 15.821 15.104 41.114-0.614 56.525l-249.702 243.814z" />
<glyph unicode="&#xe904;" glyph-name="angle-right-circle" d="M641.126 427.52l-182.221-182.374c-8.806-8.858-23.091-9.011-32 0-8.858 8.858-8.858 23.091 0 31.949l166.298 166.4-175.36 175.411c-8.858 8.858-8.858 23.142 0 31.949 8.806 8.96 23.091 8.96 31.949 0l191.386-191.283c8.806-8.858 8.806-23.245-0.051-32.051zM942.387 448c0-237.773-192.717-430.387-430.387-430.387-237.773 0-430.387 192.666-430.387 430.387s192.614 430.387 430.387 430.387c237.722 0 430.387-192.614 430.387-430.387zM897.075 448c0 212.378-172.749 385.075-385.075 385.075-212.378 0-385.075-172.749-385.075-385.075s172.749-385.075 385.075-385.075c212.326 0 385.075 172.749 385.075 385.075z" />
<glyph unicode="&#xe905;" glyph-name="angle-right" d="M594.483 445.491l-243.712 249.498c-15.514 15.872-15.206 41.165 0.614 56.576 15.821 15.565 41.114 15.002 56.576-0.614l271.667-278.17c15.565-15.872 15.155-41.216-0.614-56.576l-278.118-271.718c-7.782-7.578-17.92-11.418-28.006-11.418-10.394 0-20.787 4.096-28.621 12.083-15.514 15.821-15.104 41.114 0.614 56.525l249.6 243.814z" />
<glyph unicode="&#xe906;" glyph-name="angle-up-circle" d="M711.117 365.517c-8.704-8.704-22.682-8.704-31.334 0l-163.277 163.174-172.186-172.032c-8.755-8.755-22.579-8.755-31.334 0-8.806 8.653-8.806 22.682 0 31.283l187.75 187.853c8.704 8.704 22.784 8.806 31.437 0l178.995-178.842c8.602-8.704 8.755-22.835-0.051-31.437zM934.4 448c0-233.37-189.082-422.4-422.4-422.4s-422.4 189.030-422.4 422.4c0 233.318 189.082 422.4 422.4 422.4s422.4-189.082 422.4-422.4zM890.010 448c0 208.384-169.574 377.958-378.010 377.958s-377.958-169.574-377.958-377.958 169.574-377.907 377.958-377.907 378.010 169.523 378.010 377.907z" />
<glyph unicode="&#xe907;" glyph-name="angle-up" d="M509.547 530.613l249.498-243.712c15.872-15.514 41.165-15.206 56.576 0.614 15.565 15.821 15.002 41.114-0.614 56.576l-278.17 271.616c-15.872 15.514-41.216 15.155-56.576-0.614l-271.718-278.17c-7.578-7.782-11.418-17.92-11.418-28.006 0-10.394 4.096-20.787 12.083-28.621 15.821-15.514 41.114-15.104 56.525 0.614l243.814 249.702z" />
<glyph unicode="&#xe908;" glyph-name="arrow-down" d="M471.647 871.496v-750.387l-214.221 214.221c-15.667 15.667-41.011 15.667-56.678 0s-15.667-41.011 0-56.678l280.678-280.678c0.717-0.819 0.922-1.843 1.741-2.662 9.267-9.267 21.76-12.39 33.792-10.701 1.946 0.256 3.635 0.614 5.581 1.126 5.018 1.434 9.626 3.84 13.875 7.27 1.331 1.075 3.123 1.075 4.352 2.304 0.819 0.768 1.024 1.741 1.69 2.56l280.73 280.781c15.718 15.667 15.718 41.011 0 56.678-15.616 15.667-41.011 15.667-56.576 0l-214.272-214.221v750.387c0 22.323-18.074 40.346-40.346 40.346s-40.346-18.022-40.346-40.346z" />
<glyph unicode="&#xe909;" glyph-name="arrow-left" d="M935.475 488.346h-750.387l214.221 214.221c15.667 15.667 15.667 41.011 0 56.678s-41.011 15.667-56.678 0l-280.678-280.678c-0.819-0.717-1.843-0.922-2.662-1.741-9.267-9.267-12.39-21.76-10.701-33.792 0.256-1.946 0.614-3.635 1.126-5.581 1.434-5.018 3.84-9.626 7.27-13.875 1.075-1.331 1.075-3.123 2.304-4.352 0.768-0.819 1.741-1.024 2.56-1.69l280.781-280.73c15.667-15.718 41.011-15.718 56.678 0 15.667 15.616 15.667 41.011 0 56.576l-214.221 214.272h750.387c22.323 0 40.346 18.074 40.346 40.346s-18.022 40.346-40.346 40.346z" />
<glyph unicode="&#xe90a;" glyph-name="arrow-right" d="M88.525 488.346h750.387l-214.221 214.221c-15.718 15.667-15.718 41.011 0 56.678 15.616 15.667 41.011 15.667 56.627 0l280.627-280.678c0.922-0.717 1.894-0.973 2.714-1.741 9.267-9.267 12.39-21.76 10.701-33.792-0.205-1.946-0.614-3.635-1.075-5.581-1.434-5.018-3.84-9.626-7.322-13.875-1.075-1.331-1.075-3.123-2.304-4.352-0.768-0.819-1.741-1.024-2.611-1.69l-280.73-280.73c-15.667-15.718-41.062-15.718-56.627 0-15.718 15.616-15.718 41.011 0 56.576l214.221 214.272h-750.387c-22.323 0-40.346 18.074-40.346 40.346s18.022 40.346 40.346 40.346z" />
<glyph unicode="&#xe90b;" glyph-name="arrow-up" d="M552.325 24.517v750.387l214.221-214.221c15.667-15.667 41.011-15.667 56.678 0s15.667 41.011 0 56.678l-280.678 280.678c-0.717 0.819-0.922 1.843-1.741 2.662-9.267 9.267-21.76 12.39-33.792 10.701-1.946-0.256-3.635-0.614-5.581-1.126-5.018-1.434-9.626-3.84-13.875-7.27-1.331-1.075-3.123-1.075-4.352-2.304-0.819-0.768-1.024-1.741-1.69-2.56l-280.73-280.781c-15.718-15.667-15.718-41.011 0-56.678 15.616-15.667 41.011-15.667 56.576 0l214.272 214.221v-750.387c0-22.323 18.074-40.346 40.346-40.346s40.346 18.022 40.346 40.346z" />
<glyph unicode="&#xe90c;" glyph-name="attachment" d="M296.141-64c-79.393 0.401-151.442 31.514-204.944 82.055l0.144-0.135-4.096 3.686c-52.918 48.613-85.964 118.137-85.964 195.379s33.046 146.767 85.772 195.205l0.192 0.174 547.226 492.749c37.288 34.123 87.166 55.030 141.926 55.030s104.638-20.907 142.086-55.174l-0.16 0.144c37.901-34.002 61.777-82.978 62.259-137.54l0.001-0.086c-0.22-53.46-23.165-101.518-59.668-135.047l-0.134-0.121-514.867-463.258c-20.452-18.698-47.8-30.153-77.824-30.153s-57.372 11.455-77.913 30.233l0.089-0.080c-20.977 18.819-34.179 45.938-34.406 76.145v0.040c0.15 29.644 12.873 56.286 33.104 74.89l0.073 0.066 480.87 431.718 27.443-30.72-480.87-430.49c-12.226-11.199-19.864-27.236-19.864-45.056s7.638-33.857 19.818-45.015l0.046-0.041c13.247-12.266 31.037-19.79 50.586-19.79s37.339 7.524 50.634 19.834l-0.049-0.045 515.277 461.21c28.579 26.158 46.433 63.628 46.433 105.267s-17.855 79.109-46.325 105.17l-0.108 0.097c-30.366 28.69-71.44 46.326-116.633 46.326-43.919 0-83.948-16.656-114.115-43.997l0.143 0.128-548.454-494.387c-44.931-41.118-73.002-100.020-73.002-165.478s28.071-124.361 72.832-165.325l4.266-3.839c46.739-42.835 109.29-69.084 177.971-69.084s131.232 26.249 178.168 69.262l-0.197-0.178 514.867 463.667 27.443-30.31-514.458-461.21c-53.491-50.691-125.909-81.876-205.61-81.92h-0.009z" />
<glyph unicode="&#xe90d;" glyph-name="audio" d="M532.634 180.173v-104.192h144.742c11.418 0 20.634-9.267 20.634-20.685s-9.267-20.634-20.634-20.634h-330.752c-11.418 0-20.685 9.267-20.685 20.634 0 11.469 9.267 20.685 20.685 20.685h144.691v104.192c-138.547 10.598-248.064 126.618-248.064 267.827 0 11.418 9.267 20.634 20.685 20.634s20.685-9.216 20.685-20.634c0-125.389 101.99-227.379 227.379-227.379s227.379 101.99 227.379 227.379c0 11.418 9.318 20.634 20.685 20.634s20.634-9.216 20.634-20.634c0-141.21-109.568-257.229-248.064-267.827zM666.931 706.406v-258.406c0-85.453-69.478-154.982-154.982-154.982s-154.982 69.53-154.982 154.982v258.406c0 85.453 69.53 155.034 155.034 155.034s154.931-69.581 154.931-155.034zM625.715 706.406c0 62.72-50.995 113.664-113.715 113.664s-113.715-50.944-113.715-113.664v-258.406c0-62.72 50.995-113.664 113.715-113.664s113.715 50.944 113.715 113.664v258.406z" />
<glyph unicode="&#xe90e;" glyph-name="brightness" d="M162.97 479.693h-126.925v-63.437h126.925v63.437zM153.037 133.888l44.851-44.902 89.702 89.805-44.851 44.8-89.702-89.702zM871.014 762.061l-44.902 44.851-89.702-89.702 44.8-44.851 89.805 89.702zM543.744 923.904h-63.488v-126.925h63.437v126.925zM287.642 717.21l-89.754 89.754-44.851-44.902 89.754-89.702 44.851 44.851zM736.41 178.79l89.702-89.805 44.902 44.902-89.805 89.702-44.8-44.8zM480.256-28.006h63.437v126.976h-63.437v-126.976zM860.979 479.693v-63.437h126.925v63.437h-126.925zM512 701.85c-140.186 0-253.85-113.664-253.85-253.85s113.664-253.901 253.85-253.901c140.186 0 253.85 113.715 253.85 253.901 0 140.134-113.664 253.85-253.85 253.85zM512 257.178c-105.37 0-190.771 85.402-190.771 190.822 0 105.37 85.402 190.771 190.771 190.771 105.421 0 190.822-85.402 190.822-190.771 0-105.421-85.402-190.822-190.822-190.822z" />
<glyph unicode="&#xe90f;" glyph-name="calendar" d="M847.718 731.29h-83.968v41.984c0 11.52-9.37 20.992-20.941 20.992s-20.992-9.472-20.992-20.992v-41.984h-419.686v41.984c0 11.52-9.472 20.992-20.992 20.992-11.571 0-20.992-9.472-20.992-20.992v-41.984h-83.917c-46.285 0-83.968-37.632-83.968-83.917v-461.67c0-46.285 37.683-83.968 83.968-83.968h671.437c46.285 0 83.968 37.632 83.968 83.968v461.67c0 46.234-37.632 83.917-83.917 83.917zM889.702 185.702c0-23.194-18.739-41.933-41.984-41.933h-671.488c-23.194 0-41.984 18.739-41.984 41.933v314.726h755.405v-314.726zM889.702 542.413h-755.405v104.96c0 23.194 18.79 41.984 41.984 41.984h83.917v-62.976c0-11.52 9.421-20.992 20.992-20.992 11.52 0 20.992 9.472 20.992 20.992v62.976h419.635v-62.976c0-11.52 9.472-20.992 20.992-20.992 11.622 0 20.941 9.472 20.941 20.992v62.976h83.968c23.245 0 41.984-18.79 41.984-41.984v-104.96z" />
<glyph unicode="&#xe910;" glyph-name="cart" d="M819.2-23.040c-45.243 0-81.92 36.677-81.92 81.92s36.677 81.92 81.92 81.92c45.243 0 81.92-36.677 81.92-81.92v0c0-45.243-36.677-81.92-81.92-81.92v0zM819.2 99.84c-22.622 0-40.96-18.338-40.96-40.96s18.338-40.96 40.96-40.96c22.622 0 40.96 18.338 40.96 40.96v0c0 22.622-18.338 40.96-40.96 40.96v0zM450.56-23.040c-45.243 0-81.92 36.677-81.92 81.92s36.677 81.92 81.92 81.92c45.243 0 81.92-36.677 81.92-81.92v0c0-45.243-36.677-81.92-81.92-81.92v0zM450.56 99.84c-22.622 0-40.96-18.338-40.96-40.96s18.338-40.96 40.96-40.96c22.622 0 40.96 18.338 40.96 40.96v0c0 22.622-18.338 40.96-40.96 40.96v0zM883.917 181.76h-491.52c-0.020 0-0.044 0-0.068 0-23.617 0-43.499 15.99-49.411 37.734l-0.083 0.359-151.962 609.894c-1.282 4.295-5.197 7.373-9.83 7.373v0h-181.043v40.96h181.043c0.020 0 0.044 0 0.068 0 23.617 0 43.499-15.99 49.411-37.734l0.083-0.359 31.539-125.747h710.246c0.571 0.023 1.241 0.036 1.915 0.036 28.277 0 51.2-22.923 51.2-51.2 0-4.376-0.549-8.624-1.582-12.678l0.077 0.354-90.112-428.032c-4.588-23.484-24.999-40.962-49.493-40.962-0.168 0-0.336 0.001-0.504 0.002h0.026zM271.974 673.28l110.592-443.187c1.282-4.295 5.197-7.373 9.83-7.373v0h491.52c4.738 0.053 8.699 3.315 9.815 7.712l0.015 0.071 89.293 428.851c0.659 1.315 1.045 2.865 1.045 4.506s-0.386 3.191-1.071 4.565l0.027-0.059c-1.694 2.934-4.672 4.962-8.146 5.321l-0.046 0.004z" />
<glyph unicode="&#xe911;" glyph-name="chat" d="M881.203 786.432h-738.458c-11.264 0-20.48-9.216-20.48-20.48v-492.237c0-11.315 9.267-20.582 20.48-20.582h164.147v-122.982c0-18.586 21.965-27.29 34.97-14.592l139.264 137.626h400.077c11.315 0 20.531 9.318 20.531 20.582v492.186c0 11.315-9.216 20.48-20.531 20.48zM860.723 294.195h-388.045c-5.427 0-10.547-2.202-14.438-5.99l-110.336-109.005v94.515c0 11.213-9.216 20.48-20.531 20.48h-164.096v451.277h697.446v-451.277z" />
<glyph unicode="&#xe912;" glyph-name="check" d="M390.605 214.221c6.4-6.4 14.899-9.626 23.347-9.626 8.397 0 16.845 3.174 23.347 9.626l420.813 420.915c12.902 12.902 12.902 33.741 0 46.643s-33.741 12.902-46.643 0l-397.517-397.466-201.37 201.216c-12.902 12.851-33.792 12.851-46.643 0-12.902-12.902-12.902-33.792 0-46.643l224.666-224.666z" />
<glyph unicode="&#xe913;" glyph-name="circle-check" d="M523.213 873.574c-228.915 0-414.413-185.498-414.413-414.413s185.498-414.413 414.413-414.413 414.413 185.498 414.413 414.413-185.549 414.413-414.413 414.413zM523.213 88.474c-204.493 0-370.79 166.246-370.79 370.739s166.298 370.79 370.79 370.79c204.493 0 370.739-166.298 370.739-370.79s-166.246-370.739-370.739-370.739zM773.069 600.064c-8.55 8.55-22.426 8.55-30.925-0.102l-278.17-278.938-116.173 116.582c-8.499 8.55-22.374 8.55-30.874 0-8.499-8.499-8.602-22.374-0.102-30.874l131.738-131.994c4.045-4.096 9.626-6.4 15.36-6.4s11.366 2.304 15.514 6.4l293.683 294.451c8.602 8.55 8.448 22.374-0.051 30.874z" />
<glyph unicode="&#xe914;" glyph-name="database" d="M512-64c-241.254 0-430.080 90.112-430.080 204.8v614.4c0 114.688 188.826 204.8 430.080 204.8s430.080-90.112 430.080-204.8v-614.4c0-114.688-188.826-204.8-430.080-204.8zM122.88 256.717v-115.917c0-79.053 156.467-163.84 389.12-163.84s389.12 84.787 389.12 163.84v115.917c-68.403-69.222-215.040-115.917-389.12-115.917s-320.717 46.694-389.12 115.917zM122.88 345.6c0-79.053 156.467-163.84 389.12-163.84s389.12 84.787 389.12 163.84v115.917c-68.403-69.222-215.040-115.917-389.12-115.917s-320.717 46.694-389.12 115.917zM122.88 550.4c0-79.053 156.467-163.84 389.12-163.84s389.12 84.787 389.12 163.84v115.917c-68.403-69.222-215.040-115.917-389.12-115.917s-320.717 46.694-389.12 115.917zM512 919.040c-232.653 0-389.12-84.787-389.12-163.84s156.467-163.84 389.12-163.84 389.12 84.787 389.12 163.84-156.467 163.84-389.12 163.84z" />
<glyph unicode="&#xe915;" glyph-name="envelope" d="M890.266 716.749h-756.48c-10.906 0-19.917-8.96-19.917-19.917v-497.664c0-11.059 8.96-19.917 19.917-19.917h756.48c10.957 0 19.917 8.858 19.917 19.917v497.664c-0.051 10.957-8.96 19.917-19.917 19.917zM842.138 676.864l-330.138-330.445-330.138 330.445h660.275zM153.702 648.653l200.755-200.96-200.755-200.96v401.92zM182.272 219.085l200.397 200.499 115.354-115.354c7.834-7.834 20.224-7.834 28.058 0l115.354 115.354 200.346-200.499h-659.507zM870.349 246.733l-200.755 200.96 200.755 200.96v-401.92z" />
<glyph unicode="&#xe916;" glyph-name="eye-hide" d="M75.776-16.896l-29.082 29.082 172.851 172.851c-154.010 99.942-217.088 253.542-218.317 255.59-2.048 4.915-2.048 10.24 0 15.155 1.638 3.277 140.902 340.378 510.771 340.378 102.4 0 187.187-25.805 256-63.078l180.224 180.224 29.082-29.082-172.851-172.851c154.010-99.942 217.088-253.542 218.317-255.59 2.048-4.915 2.048-10.24 0-15.155-1.638-3.686-140.902-340.787-510.771-340.787-102.4 0-187.187 25.805-256 63.078l-180.224-179.814zM285.491 192.819c61.85-31.13 136.806-52.019 226.509-52.019 315.802 0 447.283 258.048 469.402 307.2-14.336 32.358-75.776 154.419-205.619 234.701l-117.146-117.146c26.624-31.949 42.598-72.909 42.598-117.555 0-101.581-82.739-184.32-184.32-184.32-44.646 0-85.606 15.974-117.555 42.598l-113.869-113.459zM42.598 448c14.336-32.358 75.776-154.419 205.619-234.701l122.061 122.061c-24.166 31.13-38.502 70.042-38.502 112.23 0 101.581 82.739 184.32 184.32 184.32 42.189 0 81.101-14.336 112.23-38.502l109.363 109.363c-61.030 31.539-135.987 52.429-225.69 52.429-315.802 0-447.283-258.048-469.402-307.2zM428.032 335.36c24.576-19.251 55.296-30.72 88.474-30.72 79.053 0 143.36 64.307 143.36 143.36 0 33.178-11.469 63.898-30.72 88.474l-201.114-201.114zM516.506 591.36c-79.053 0-143.36-64.307-143.36-143.36 0-31.13 9.83-59.802 26.624-83.149l199.885 199.885c-23.347 16.794-52.019 26.624-83.149 26.624z" />
<glyph unicode="&#xe917;" glyph-name="eye" d="M512 58.88c-369.869 0-509.133 337.101-512 340.378-0.92 2.244-1.453 4.848-1.453 7.578s0.534 5.334 1.503 7.715l-0.049-0.137c2.867 3.686 142.131 340.787 512 340.787s509.133-337.101 512-340.378c0.92-2.244 1.453-4.848 1.453-7.578s-0.534-5.334-1.503-7.715l0.049 0.137c-2.867-3.686-142.131-340.787-512-340.787zM40.96 407.040c23.757-49.152 155.238-307.2 471.040-307.2s447.283 258.048 471.040 307.2c-23.757 49.152-155.238 307.2-471.040 307.2s-447.283-258.048-471.040-307.2zM512 222.72c-101.797 0-184.32 82.523-184.32 184.32s82.523 184.32 184.32 184.32c101.797 0 184.32-82.523 184.32-184.32v0c0-101.797-82.523-184.32-184.32-184.32v0zM512 550.4c-79.176 0-143.36-64.184-143.36-143.36s64.184-143.36 143.36-143.36c79.176 0 143.36 64.184 143.36 143.36v0c0 79.176-64.184 143.36-143.36 143.36v0z" />
<glyph unicode="&#xe918;" glyph-name="file-text" d="M245.76 222.72h450.56v-40.96h-450.56zM737.28 468.48h-491.52v-40.96h491.52zM491.52 714.24h-245.76v-40.96h245.76zM942.080 693.76v-737.28c0-11.311-9.169-20.48-20.48-20.48v0h-819.2c-11.311 0-20.48 9.169-20.48 20.48v0 983.040c0 11.311 9.169 20.48 20.48 20.48v0h573.44c5.622-0.083 10.682-2.418 14.333-6.141l245.763-245.763c3.726-3.654 6.061-8.714 6.144-14.321v-0.015zM696.32 714.24h175.718l-175.718 175.718zM901.12 673.28h-225.28c-11.311 0-20.48 9.169-20.48 20.48v0 225.28h-532.48v-942.080h778.24zM245.76 304.64h532.48v40.96h-532.48zM245.76 550.4h532.48v40.96h-532.48z" />
<glyph unicode="&#xe919;" glyph-name="file" d="M935.936 708.096l-245.76 245.76c-3.654 3.726-8.714 6.061-14.321 6.144h-573.455c-11.311 0-20.48-9.169-20.48-20.48v0-983.040c0-11.311 9.169-20.48 20.48-20.48v0h819.2c11.311 0 20.48 9.169 20.48 20.48v0 737.28c-0.083 5.622-2.418 10.682-6.141 14.333l-0.003 0.003zM696.32 889.958l175.718-175.718h-175.718zM901.12-23.040h-778.24v942.080h532.48v-225.28c0-11.311 9.169-20.48 20.48-20.48v0h225.28z" />
<glyph unicode="&#xe91a;" glyph-name="filter" d="M593.92-64c-1.108-0.213-2.383-0.335-3.686-0.335s-2.578 0.122-3.814 0.354l0.127-0.020-163.84 61.44c-7.757 3.032-13.152 10.448-13.152 19.124 0 0.477 0.016 0.95 0.048 1.419l-0.003-0.063v401.408c-0.91 3.116-2.166 5.836-3.762 8.317l0.075-0.125-335.053 491.52h-49.152c-11.311 0-20.48 9.169-20.48 20.48s9.169 20.48 20.48 20.48v0h983.040c11.311 0 20.48-9.169 20.48-20.48s-9.169-20.48-20.48-20.48v0h-51.2l-334.643-491.52c-1.831-2.103-3.348-4.541-4.442-7.198l-0.064-0.174v-463.667c0.006-0.181 0.009-0.395 0.009-0.609 0-6.619-3.204-12.49-8.147-16.146l-0.055-0.039c-3.271-2.311-7.34-3.694-11.733-3.694-0.195 0-0.39 0.003-0.584 0.008l0.029-0.001zM450.56 32.256l122.88-45.875v432.947c0.63 11.62 5.012 22.109 11.944 30.391l-0.066-0.081 318.669 469.402h-783.565l319.078-469.811c6.692-8.11 10.932-18.464 11.465-29.787l0.004-0.114z" />
<glyph unicode="&#xe91b;" glyph-name="fire" d="M511.181-64c-0.032 0-0.070 0-0.108 0-27.488 0-54.35 2.684-80.337 7.803l2.621-0.43c-176.341 36.671-307.432 189.373-310.473 373.227l-0.004 0.328c0 135.987 67.584 217.498 127.795 289.587s107.315 129.024 81.92 223.232c-0.397 1.507-0.625 3.238-0.625 5.021 0 11.311 9.169 20.48 20.48 20.48 4.198 0 8.101-1.263 11.35-3.43l-0.075 0.047c67.468-46.115 119.995-109.575 151.736-184.022l1.044-2.756s0-2.458 4.506-2.867c2.955 0.094 5.409 2.13 6.134 4.869l0.010 0.046c6.706 26.299 10.554 56.489 10.554 87.579 0 63.775-16.195 123.767-44.696 176.089l0.964-1.933c-1.364 2.669-2.163 5.821-2.163 9.161 0 4.933 1.744 9.458 4.649 12.994l-0.028-0.036c3.782 4.496 9.411 7.333 15.703 7.333 1.993 0 3.919-0.285 5.741-0.816l-0.145 0.036c75.809-26.747 140.41-68.795 192.804-122.759l0.117-0.121c86.426-83.558 190.464-243.302 190.464-516.506-0.092-117.748-53.883-222.913-138.203-292.343l-0.652-0.521c-67.208-55.581-154.272-89.297-249.211-89.297-0.659 0-1.317 0.002-1.975 0.005h0.101zM498.483 294.4c-31.949-22.938-88.883-81.92-88.883-213.811 0-56.554 45.846-102.4 102.4-102.4s102.4 45.846 102.4 102.4v0c-3.787 35.76-20.175 67.113-44.571 90.042l-0.075 0.070c-31.234 34.447-55.614 75.743-70.589 121.305l-0.681 2.394zM381.747 785.92c2.048-84.787-47.104-144.179-99.123-204.8-58.573-71.68-118.784-142.95-118.784-264.192 2.668-148.234 97.903-273.549 230.23-320.781l2.423-0.755c-17.398 23.358-27.854 52.78-27.854 84.645 0 0.194 0 0.388 0.001 0.582v-0.030c0 208.077 130.253 262.144 135.578 264.602 2.582 1.229 5.61 1.947 8.806 1.947s6.225-0.718 8.933-2.001l-0.127 0.054c5.312-2.984 9.11-8.128 10.221-14.211l0.019-0.125c11.084-52.162 35.441-97.459 69.366-133.684l-0.143 0.155c30.864-29.872 50.97-70.695 54.038-116.19l0.030-0.546c0-0.005 0-0.010 0-0.016 0-31.577-10.297-60.749-27.717-84.341l0.274 0.389c41.993 14.247 78.323 34.723 109.97 60.695l-0.607-0.483c75.291 62.508 122.88 156.127 122.88 260.861 0 0.163 0 0.326 0 0.489v-0.025c0 391.987-213.811 537.395-309.248 582.861 18.054-43.845 28.536-94.745 28.536-148.093 0-34.693-4.433-68.35-12.763-100.437l0.61 2.77c-5.449-19.924-23.045-34.458-44.153-35.223l-0.084-0.002c-0.948-0.072-2.053-0.114-3.168-0.114-19.34 0-35.782 12.411-41.794 29.704l-0.094 0.31c-21.625 54.33-54.445 100.174-95.852 136.46l-0.404 0.347z" />
<glyph unicode="&#xe91c;" glyph-name="forward" d="M858.112 575.488l-266.189 266.035c-11.981 12.237-32.41 3.379-32.41-13.363v-129.741c-13.67 1.792-29.44 3.226-45.107 3.226-195.226 0-354.048-155.75-354.048-347.29 0-128.819 71.373-242.125 190.925-303.309 18.79-9.677 36.352 13.619 23.091 29.286-34.714 40.602-51.61 84.224-51.61 133.222 0 120.218 98.816 218.010 220.314 218.010 5.53 0 11.008-0.154 16.435-0.563v-134.861c0-16.691 20.378-25.6 32.41-13.414l266.189 265.882c7.475 7.373 7.475 19.61 0 26.88zM597.606 342.118v106.138c0 9.472-7.014 17.459-16.282 18.79-11.213 1.638-25.088 2.56-38.246 2.56-142.336 0-258.355-114.739-258.355-256 0-28.518 5.069-55.91 14.95-82.022-64.563 56.883-101.325 135.987-101.325 222.822 0 170.547 141.824 309.299 316.006 309.299 22.426 0 45.363-3.43 60.621-6.298 11.827-2.202 22.579 6.861 22.579 18.739v106.086l220.211-220.16-220.16-219.955z" />
<glyph unicode="&#xe91d;" glyph-name="headphones" d="M901.12-64c-67.865 0-122.88 55.015-122.88 122.88v0 204.8c0.141 67.758 55.102 122.632 122.88 122.632 31.527 0 60.282-11.873 82.035-31.392l-0.115 0.101v98.304c0 0.201 0.001 0.439 0.001 0.677 0 122.337-47.886 233.489-125.938 315.735l0.19-0.202-52.838-55.296c-9.688-10.509-23.523-17.068-38.89-17.068-14.156 0-27.011 5.567-36.497 14.63l0.020-0.019c-57.188 54.185-134.621 87.504-219.835 87.504-83.95 0-160.347-32.337-217.414-85.235l0.206 0.189c-9.593-9.755-22.932-15.8-37.683-15.8s-28.090 6.045-37.676 15.792l-0.007 0.007-49.971 55.706c-77.861-82.045-125.748-193.197-125.748-315.534 0-0.238 0-0.476 0.001-0.714v0.037-98.304c21.639 19.418 50.393 31.291 81.92 31.291 67.865 0 122.88-55.015 122.88-122.88 0-0.057 0-0.113 0-0.17v0.009-204.8c0-67.865-55.015-122.88-122.88-122.88v0c-67.865 0-122.88 55.015-122.88 122.88v0 394.854c-0.001 0.278-0.001 0.608-0.001 0.938 0 139.399 57.032 265.478 149.036 356.175l0.059 0.058c93.123 92.166 221.262 149.107 362.701 149.107s269.577-56.941 362.744-149.15l-0.043 0.043c92.307-90.793 149.504-217.035 149.504-356.636 0-0.188 0-0.376 0-0.564v0.029-394.854c0-67.865-55.015-122.88-122.88-122.88v0zM819.2 58.88c0-45.243 36.677-81.92 81.92-81.92s81.92 36.677 81.92 81.92v0 204.8c0 45.243-36.677 81.92-81.92 81.92s-81.92-36.677-81.92-81.92v0zM40.96 58.88c0-45.243 36.677-81.92 81.92-81.92v0c45.243 0 81.92 36.677 81.92 81.92v0 204.8c0 45.243-36.677 81.92-81.92 81.92s-81.92-36.677-81.92-81.92v0zM510.771 837.12c95.316-0.654 181.757-38.119 245.926-98.87l-0.166 0.156c2.235-2.295 5.354-3.718 8.806-3.718s6.572 1.423 8.804 3.715l0.003 0.003 53.658 58.573c-83.531 74.759-194.432 120.459-316.006 120.459s-232.476-45.7-316.461-120.859l0.455 0.4 49.971-53.658c2.235-2.295 5.354-3.718 8.806-3.718s6.572 1.423 8.804 3.715l0.003 0.003c64.009 58.193 149.439 93.823 243.19 93.823 1.48 0 2.958-0.009 4.433-0.027l-0.224 0.002z" />
<glyph unicode="&#xe91e;" glyph-name="home" d="M849.92-64h-675.84c-28.277 0-51.2 22.923-51.2 51.2v0 535.347l-88.064-87.654-29.082 29.082 491.52 491.52c3.712 3.742 8.856 6.058 14.541 6.058s10.829-2.316 14.539-6.057l491.521-491.521-29.082-29.082-87.654 86.426v-532.48c0.017-0.488 0.026-1.062 0.026-1.638 0-28.277-22.923-51.2-51.2-51.2-0.009 0-0.018 0-0.028 0h0.001zM655.36-23.040h194.56c5.655 0 10.24 4.585 10.24 10.24v0 575.488l-347.75 348.16-348.57-347.75v-575.898c0-5.655 4.585-10.24 10.24-10.24v0h194.56v235.52c0 28.277 22.923 51.2 51.2 51.2v0h184.32c28.277 0 51.2-22.923 51.2-51.2v0zM409.6-23.040h204.8v235.52c0 5.655-4.585 10.24-10.24 10.24v0h-184.32c-5.655 0-10.24-4.585-10.24-10.24v0z" />
<glyph unicode="&#xe91f;" glyph-name="Hour-Glass" d="M860.16 853.914v65.126h81.92v40.96h-860.16v-40.96h81.92v-65.126c0-143.36 70.451-215.040 127.386-271.974 43.418-43.827 77.414-78.643 77.414-133.939s-33.997-90.112-77.414-133.939c-56.934-57.344-127.386-128.614-127.386-271.974v-65.126h-81.92v-40.96h860.16v40.96h-81.92v65.126c0 143.36-70.451 214.63-127.386 271.974-43.418 43.827-77.414 78.234-77.414 133.939s33.997 90.112 77.414 133.939c56.934 57.344 127.386 128.614 127.386 271.974zM614.4 448c0-72.499 43.418-116.326 89.293-163.84 56.934-57.344 115.507-116.736 115.507-243.302v-63.898h-614.4v65.126c0 126.566 58.573 185.958 115.507 243.302 45.875 46.285 89.293 90.112 89.293 163.84s-43.418 116.326-89.293 163.84c-56.934 54.886-115.507 114.278-115.507 240.845v65.126h614.4v-65.126c0-126.566-58.573-185.958-115.507-243.302-45.875-46.285-89.293-90.112-89.293-162.611z" />
<glyph unicode="&#xe920;" glyph-name="inbox" d="M916.275 309.453v0.41l-104.499 521.779c-2.355 12.288-13.056 21.146-25.6 21.146h-535.347c-12.288 0-22.886-8.499-25.498-20.48l-117.504-522.342c-0.41-1.792-0.666-3.635-0.666-5.478v-235.162c0-14.336 11.725-26.112 26.112-26.112h757.35c14.336 0 26.112 11.725 26.112 26.112v235.162c0.051 1.69-0.051 3.379-0.461 4.966zM271.872 800.563h492.8l94.31-469.965h-229.427c-14.336 0-26.112-11.725-26.112-26.163 0-35.994-55.347-79.155-91.392-79.155s-91.392 43.162-91.392 79.155c0 14.387-11.725 26.163-26.112 26.163h-228.71l106.035 469.965zM864.563 95.437h-705.126v182.886h211.763c12.032-52.275 84.89-104.038 140.8-104.038s128.768 51.814 140.749 104.038h211.814v-182.886z" />
<glyph unicode="&#xe921;" glyph-name="key" d="M1003.52-64h-204.8c-11.311 0-20.48 9.169-20.48 20.48v0 102.4h-102.4c-11.311 0-20.48 9.169-20.48 20.48v0 102.4h-102.4c-11.311 0-20.48 9.169-20.48 20.48v0 102.4h-70.042c-0.037 0-0.080 0-0.123 0-5.523 0-10.535 2.186-14.219 5.741l-50.784 48.737c-26.825-8.575-57.681-13.517-89.692-13.517-0.148 0-0.295 0-0.443 0h0.023c-169.662 0-307.2 137.538-307.2 307.2s137.538 307.2 307.2 307.2c169.662 0 307.2-137.538 307.2-307.2v0c-0.036-23.394-2.721-46.142-7.77-67.985l0.397 2.039 409.6-409.6c3.726-3.654 6.061-8.714 6.144-14.321v-204.815c0.044-0.501 0.068-1.083 0.068-1.671 0-10.903-8.519-19.815-19.264-20.444l-0.056-0.003zM819.2-23.040h163.84v175.718l-413.286 413.286c-3.702 3.706-5.992 8.823-5.992 14.475 0 1.843 0.244 3.63 0.7 5.329l-0.033-0.143c5.471 20.156 8.614 43.298 8.614 67.174 0 147.040-119.2 266.24-266.24 266.24s-266.24-119.2-266.24-266.24c0-147.040 119.2-266.24 266.24-266.24 0.14 0 0.28 0 0.419 0h-0.022c31.764 0.126 62.159 5.82 90.313 16.156l-1.839-0.591c1.987 0.691 4.277 1.090 6.66 1.090 5.504 0 10.51-2.128 14.242-5.607l-0.012 0.011 54.067-52.019h81.92c11.311 0 20.48-9.169 20.48-20.48v0-102.4h102.4c11.311 0 20.48-9.169 20.48-20.48v0-102.4h102.4c11.311 0 20.48-9.169 20.48-20.48v0zM245.76 591.36c-67.865 0-122.88 55.015-122.88 122.88s55.015 122.88 122.88 122.88c67.865 0 122.88-55.015 122.88-122.88v0c0-67.865-55.015-122.88-122.88-122.88v0zM245.76 796.16c-45.243 0-81.92-36.677-81.92-81.92s36.677-81.92 81.92-81.92c45.243 0 81.92 36.677 81.92 81.92v0c0 45.243-36.677 81.92-81.92 81.92v0z" />
<glyph unicode="&#xe922;" glyph-name="layers" d="M512-64c-0.325-0.004-0.709-0.007-1.094-0.007-15.874 0-30.754 4.26-43.558 11.698l0.415-0.223-444.006 267.878c-14.766 6.408-24.907 20.861-24.907 37.683s10.141 31.275 24.642 37.581l0.265 0.102 95.027 58.573-95.027 56.934c-14.766 6.408-24.907 20.861-24.907 37.683s10.141 31.275 24.642 37.581l0.265 0.102 95.027 58.573-95.027 57.344c-13.684 7.429-22.994 21.388-23.753 37.583l-0.004 0.101c0.525 16.38 9.716 30.5 23.118 37.976l0.229 0.117 444.826 274.842c12.601 7.269 27.713 11.557 43.827 11.557s31.227-4.288 44.259-11.785l-0.432 0.229 444.826-274.842c13.631-7.593 22.822-21.713 23.345-38.021l0.002-0.071c-0.763-16.296-10.073-30.255-23.52-37.565l-0.237-0.118-94.618-56.934 95.027-58.573c15.030-6.292 25.397-20.879 25.397-37.888s-10.367-31.596-25.127-37.788l-0.27-0.1-94.618-56.934 95.027-58.573c14.766-6.408 24.907-20.861 24.907-37.683s-10.141-31.275-24.642-37.581l-0.265-0.102-444.826-267.469c-12.555-7.466-27.682-11.879-43.84-11.879-0.139 0-0.279 0-0.418 0.001h0.022zM40.96 253.030l3.686-2.458 444.006-267.469c6.669-3.482 14.565-5.524 22.938-5.524s16.269 2.043 23.217 5.657l-0.279-0.132 444.416 267.059c1.437 0.751 2.658 1.71 3.675 2.854l0.011 0.013-3.277 2.458-113.050 69.632-310.067-184.32c-12.703-7.12-27.878-11.314-44.032-11.314s-31.329 4.193-44.495 11.551l0.463-0.237-310.477 184.73-113.050-69.632zM40.96 443.904l3.686-2.458 444.006-267.469c6.669-3.482 14.565-5.524 22.938-5.524s16.269 2.043 23.217 5.657l-0.279-0.132 444.416 267.469c1.456 0.865 2.68 1.959 3.664 3.246l0.023 0.031-3.686 2.458-113.050 69.632-310.477-186.778c-12.695-7.156-27.871-11.372-44.032-11.372s-31.337 4.216-44.489 11.608l0.457-0.236-309.658 186.778-113.050-69.632c-1.45-0.874-2.673-1.966-3.664-3.247l-0.022-0.030zM40.96 635.187l4.096-2.867 444.006-267.469c6.675-3.451 14.57-5.474 22.938-5.474s16.263 2.023 23.222 5.608l-0.285-0.133 444.006 267.469c1.603 0.856 2.96 1.952 4.080 3.258l0.016 0.019-3.686 2.867-446.874 274.842c-6.485 3.411-14.17 5.412-22.323 5.412s-15.838-2.002-22.591-5.54l0.268 0.128-442.778-275.251c-1.584-0.747-2.939-1.708-4.096-2.867v0z" />
<glyph unicode="&#xe923;" glyph-name="leaf" d="M95.437-23.040h-44.646c-24.986 0-38.502 0-46.285 8.192-2.838 3.487-4.557 7.983-4.557 12.88 0 1.531 0.168 3.024 0.487 4.459l-0.025-0.136c20.887 97.006 49.814 182.266 87.15 262.834l-3.182-7.653c-52.283 53.058-84.569 125.946-84.569 206.375 0 13.89 0.963 27.554 2.825 40.931l-0.176-1.545c18.432 126.157 113.459 251.904 248.627 324.813 236.339 131.891 500.122 117.965 763.085-38.093 5.495-3.73 9.057-9.948 9.057-16.998s-3.562-13.268-8.986-16.953l-0.071-0.046c-72.090-56.525-98.714-130.253-126.566-208.486-22.374-74.993-56.568-140.21-100.933-197.108l0.99 1.319c-114.688-137.216-387.891-265.83-586.547-178.586-23.701-51.374-43.499-111.392-56.4-173.93l-0.944-5.475c-2.867-14.336-3.686-16.794-48.333-16.794zM46.285 17.92h60.211c15.312 67.995 35.733 127.468 61.734 183.839l-2.342-5.663 5.734 13.517c3.188 7.419 10.433 12.521 18.87 12.521 3.431 0 6.664-0.844 9.505-2.334l-0.112 0.054c179.405-95.027 450.56 30.72 556.237 158.925 40.133 52.162 71.807 113.278 91.555 179.535l1.015 3.966c22.229 81.666 63.493 151.854 118.848 208.142l-0.064-0.065c-174.080 97.075-428.442 172.032-696.32 23.347-122.88-68.813-210.944-181.043-227.328-293.274-1.604-10.678-2.519-23.001-2.519-35.538 0-64.099 23.941-122.606 63.368-167.067l-0.228 0.262c67.417 124.998 164.965 226.093 283.202 295.859l3.518 1.92 20.89-35.226c-236.339-141.722-319.488-351.437-365.773-542.72z" />
<glyph unicode="&#xe924;" glyph-name="link" d="M843.213 503.091l-123.597-123.546c-7.987-7.987-20.89-7.987-28.877 0-7.987 7.936-7.987 20.89 0 28.826l123.597 123.597c60.16 60.16 60.16 158.054 0 218.214-29.184 29.133-67.891 45.21-109.158 45.21s-79.974-16.026-109.158-45.21l-123.597-123.546c-60.16-60.16-60.16-158.054 0-218.266 14.746-14.746 31.949-26.163 51.046-33.894 10.445-4.25 15.514-16.128 11.264-26.624-8.755-21.606-32.922-8.704-26.624-11.264-24.218 9.779-45.978 24.269-64.614 42.906-76.134 76.032-76.134 199.885 0 276.019l123.597 123.546c36.864 36.864 85.914 57.19 138.035 57.19s101.171-20.275 138.035-57.19c76.134-76.083 76.134-199.885 0.051-275.968zM515.891 559.36c-10.496 4.25-22.374-0.819-26.624-11.264-4.25-10.496 0.819-22.374 11.264-26.624 19.149-7.731 36.301-19.149 51.046-33.894 60.211-60.211 60.211-158.106 0-218.266l-123.597-123.546c-29.133-29.133-67.891-45.21-109.107-45.21s-79.974 16.026-109.158 45.21c-60.16 60.16-60.16 158.054 0 218.214l123.597 123.597c7.987 7.936 7.987 20.89 0 28.877s-20.89 7.987-28.877 0l-123.597-123.597c-76.134-76.032-76.134-199.885 0-276.019 36.864-36.864 85.914-57.139 138.035-57.139s101.171 20.275 138.035 57.139l123.597 123.546c76.134 76.083 76.134 199.936 0 276.070-18.637 18.688-40.346 33.075-64.614 42.906z" />
<glyph unicode="&#xe925;" glyph-name="location" d="M512.051 625.152c-40.602 0-73.626-33.024-73.626-73.626 0-40.55 33.024-73.472 73.626-73.472 40.499 0 73.472 32.973 73.472 73.472 0.051 40.653-32.973 73.626-73.472 73.626zM512.051 527.155c-13.517 0-24.525 10.906-24.525 24.371 0 13.568 11.008 24.525 24.525 24.525 13.466 0 24.422-10.957 24.422-24.525 0-13.466-10.906-24.371-24.422-24.371zM512 805.325c-144.128 0-261.427-117.299-261.427-261.427 0-39.987 9.626-79.309 28.774-116.838 0.563-3.174 1.843-6.144 3.584-8.909l6.4-9.626c3.789-6.298 7.731-12.39 11.52-17.459l190.822-289.28c4.506-6.912 12.186-11.008 20.429-11.008s15.923 4.096 20.48 11.008l192.102 290.816c2.918 4.096 5.478 8.141 7.834 11.878l6.758 10.189c1.69 2.56 2.765 5.325 3.277 8.141 20.531 38.758 30.976 79.411 30.976 121.139-0.051 144.077-117.402 261.376-261.53 261.376zM696.115 440.218c-0.87-1.536-1.485-3.174-1.997-4.864l-2.867-4.301c-2.202-3.379-4.352-6.81-7.117-10.803l-172.134-260.454-170.957 259.123c-3.482 4.864-6.758 9.882-10.394 15.821l-2.611 3.994c-0.461 1.587-1.075 3.123-1.946 4.557-17.562 32.461-26.47 66.355-26.47 100.608 0 117.094 95.283 212.378 212.326 212.378 117.146 0 212.429-95.283 212.429-212.378 0-35.635-9.472-70.451-28.262-103.68z" />
<glyph unicode="&#xe926;" glyph-name="love" d="M497.613 85.862l-335.974 333.312c-13.824 13.722-25.805 29.030-35.635 45.466-55.091 91.392-40.499 207.974 35.533 283.392 44.237 43.827 103.014 68.045 165.53 68.045 98.509 0 159.488-57.344 184.934-89.702 25.549 32.461 86.477 89.702 184.934 89.702 62.515 0 121.293-24.166 165.53-68.045 75.981-75.418 90.675-192 35.482-283.494-9.728-16.384-21.76-31.642-35.584-45.414l-335.974-333.312c-7.987-7.936-20.787-7.936-28.774 0.051zM327.066 775.168c-51.661 0-100.198-19.968-136.755-56.166-62.566-62.106-74.65-158.054-29.286-233.37 8.090-13.568 17.971-26.112 29.389-37.427l321.587-319.078 321.587 319.078c11.469 11.315 21.299 23.859 29.338 37.325 45.414 75.366 33.331 171.315-29.235 233.472-36.506 36.198-85.094 56.166-136.755 56.166-73.216 0-135.117-40.243-167.322-95.386-7.885-13.517-27.443-13.517-35.328 0-32 55.091-93.901 95.386-167.219 95.386z" />
<glyph unicode="&#xe927;" glyph-name="map" d="M926.31 696.986l-203.93 75.059c4.301-2.15-6.298 4.096-14.49 0h-0.307l-195.584-72.090-195.994 72.090c3.891-1.946-5.837 3.891-14.592 0h-0.154l-203.571-75.059c-7.731-3.174-12.8-10.598-12.8-18.893v-535.091c0-35.379 45.005-12.493 27.904-18.893l196.045 71.987 195.635-71.987c9.523-3.174 19.712 1.485 15.053 0l195.686 71.987 196.096-71.987c13.312-5.12 27.802 4.096 27.802 18.893v535.091c0 8.294-5.12 15.718-12.8 18.893zM288.41 231.885l-162.867-58.88v491.264l162.867 58.88v-491.264zM491.622 173.005l-162.458 58.88v491.264l162.458-58.88v-491.264zM694.784 231.885l-162.458-58.88v491.264l162.458 58.88v-491.264zM898.406 173.005l-162.918 58.88v491.264l162.918-58.88v-491.264z" />
<glyph unicode="&#xe928;" glyph-name="minus-circle" d="M756.531 448c0-12.237-9.984-22.221-22.272-22.221h-444.57c-12.237 0-22.221 9.984-22.221 22.221s9.984 22.221 22.221 22.221h444.621c12.237 0 22.221-10.035 22.221-22.221zM934.4 448c0-233.37-189.082-422.4-422.4-422.4s-422.4 188.979-422.4 422.4c0 233.318 189.082 422.4 422.4 422.4s422.4-189.082 422.4-422.4zM889.958 448c0 208.435-169.574 377.907-377.958 377.907-208.435 0-377.907-169.523-377.907-377.907s169.523-377.958 377.907-377.958c208.384-0.051 377.958 169.574 377.958 377.958z" />
<glyph unicode="&#xe929;" glyph-name="paper-plane" d="M881.562 843.878l-754.739-313.344c-17.766-7.526-16.026-33.894 3.328-38.195l347.546-78.643 78.592-347.494c4.25-19.302 30.822-21.248 38.144-3.328l313.498 754.688c6.81 16.486-9.933 33.178-26.368 26.317zM200.704 517.581l602.726 250.368-315.238-315.29-287.488 64.922zM581.53 136.806l-64.922 287.386 315.238 315.238-250.317-602.624z" />
<glyph unicode="&#xe92a;" glyph-name="plus-circle" d="M748.186 448c0-11.776-9.626-21.453-21.453-21.453h-193.229v-193.229c0-11.776-9.677-21.504-21.504-21.504s-21.453 9.677-21.453 21.504v193.229h-193.28c-11.776 0-21.453 9.677-21.453 21.453s9.677 21.453 21.453 21.453h193.28v193.28c0 11.776 9.677 21.453 21.453 21.453s21.504-9.677 21.504-21.453v-193.28h193.229c11.827 0 21.453-9.677 21.453-21.453zM920.013 448c0-225.331-182.63-408.013-408.013-408.013s-408.013 182.63-408.013 408.013c0 225.382 182.63 408.013 408.013 408.013 225.331 0 408.013-182.63 408.013-408.013zM877.056 448c0 201.318-163.738 365.056-365.056 365.056s-365.056-163.738-365.056-365.056c0-201.37 163.738-365.056 365.056-365.056s365.056 163.686 365.056 365.056z" />
<glyph unicode="&#xe92b;" glyph-name="printer" d="M893.594 310.221v254.362zM893.594 310.221v254.362zM88.013 310.221v254.362zM935.987 310.221v254.362zM649.779 320.819h-275.558c-11.674 0-21.197-9.574-21.197-21.197s9.574-21.197 21.197-21.197h275.61c11.725 0 21.197 9.574 21.197 21.197s-9.523 21.197-21.248 21.197zM649.779 214.784h-275.558c-11.674 0-21.197-9.574-21.197-21.197s9.574-21.197 21.197-21.197h275.61c11.725 0 21.197 9.574 21.197 21.197s-9.523 21.197-21.248 21.197zM649.779 320.819h-275.558c-11.674 0-21.197-9.574-21.197-21.197s9.574-21.197 21.197-21.197h275.61c11.725 0 21.197 9.574 21.197 21.197s-9.523 21.197-21.248 21.197zM649.779 214.784h-275.558c-11.674 0-21.197-9.574-21.197-21.197s9.574-21.197 21.197-21.197h275.61c11.725 0 21.197 9.574 21.197 21.197s-9.523 21.197-21.248 21.197zM649.779 214.784h-275.558c-11.674 0-21.197-9.574-21.197-21.197s9.574-21.197 21.197-21.197h275.61c11.725 0 21.197 9.574 21.197 21.197s-9.523 21.197-21.248 21.197zM649.779 320.819h-275.558c-11.674 0-21.197-9.574-21.197-21.197s9.574-21.197 21.197-21.197h275.61c11.725 0 21.197 9.574 21.197 21.197s-9.523 21.197-21.248 21.197zM374.221 278.426h275.61c11.725 0 21.197 9.574 21.197 21.197s-9.523 21.197-21.197 21.197h-275.61c-11.674 0-21.197-9.574-21.197-21.197s9.523-21.197 21.197-21.197zM649.779 214.784h-275.558c-11.674 0-21.197-9.574-21.197-21.197s9.574-21.197 21.197-21.197h275.61c11.725 0 21.197 9.574 21.197 21.197s-9.523 21.197-21.248 21.197zM851.2 649.421h-74.189v148.378c0 11.674-9.523 21.197-21.197 21.197h-487.629c-11.674 0-21.197-9.574-21.197-21.197v-148.378h-74.189c-46.746 0-84.787-38.042-84.787-84.787v-254.413c0-46.746 38.042-84.787 84.787-84.787h74.189v-127.181c0-11.674 9.574-21.197 21.197-21.197h487.578c11.725 0 21.197 9.574 21.197 21.197v127.181h74.189c46.694 0 84.787 38.042 84.787 84.787v254.362c0.051 46.746-38.042 84.838-84.736 84.838zM289.382 776.602h445.184v-127.181h-445.184v127.181zM734.618 119.398h-445.235v254.413h445.184v-254.413zM893.594 310.221c0-23.45-18.995-42.394-42.394-42.394h-74.189v127.181c0 11.674-9.523 21.197-21.197 21.197h-487.629c-11.674 0-21.197-9.523-21.197-21.197v-127.181h-74.189c-23.45 0-42.394 18.944-42.394 42.394v254.362c0 23.45 18.995 42.394 42.394 42.394h678.4c23.398 0 42.394-18.995 42.394-42.394v-254.362zM374.221 278.426h275.61c11.725 0 21.197 9.574 21.197 21.197s-9.523 21.197-21.197 21.197h-275.61c-11.674 0-21.197-9.574-21.197-21.197s9.523-21.197 21.197-21.197zM374.221 172.39h275.61c11.725 0 21.197 9.574 21.197 21.197s-9.523 21.197-21.197 21.197h-275.61c-11.674 0-21.197-9.574-21.197-21.197s9.523-21.197 21.197-21.197zM649.779 214.784h-275.558c-11.674 0-21.197-9.574-21.197-21.197s9.574-21.197 21.197-21.197h275.61c11.725 0 21.197 9.574 21.197 21.197s-9.523 21.197-21.248 21.197zM649.779 320.819h-275.558c-11.674 0-21.197-9.574-21.197-21.197s9.574-21.197 21.197-21.197h275.61c11.725 0 21.197 9.574 21.197 21.197s-9.523 21.197-21.248 21.197zM649.779 320.819h-275.558c-11.674 0-21.197-9.574-21.197-21.197s9.574-21.197 21.197-21.197h275.61c11.725 0 21.197 9.574 21.197 21.197s-9.523 21.197-21.248 21.197zM649.779 214.784h-275.558c-11.674 0-21.197-9.574-21.197-21.197s9.574-21.197 21.197-21.197h275.61c11.725 0 21.197 9.574 21.197 21.197s-9.523 21.197-21.248 21.197z" />
<glyph unicode="&#xe92c;" glyph-name="reply" d="M165.888 575.488c-7.475-7.27-7.475-19.507 0-26.778l266.189-265.882c11.981-12.186 32.41-3.277 32.41 13.414v134.861c5.376 0.358 10.854 0.563 16.435 0.563 121.498 0 220.262-97.792 220.262-218.010 0-48.998-16.896-92.621-51.61-133.222-13.261-15.718 4.301-39.014 23.091-29.286 119.603 61.184 190.976 174.49 190.976 303.309 0 191.539-158.874 347.29-354.099 347.29-15.718 0-31.488-1.434-45.107-3.226v129.638c0 16.742-20.378 25.6-32.41 13.363l-266.138-266.035zM206.182 562.125l220.211 220.16v-106.138c0-11.878 10.752-20.941 22.579-18.739 15.258 2.867 38.195 6.298 60.621 6.298 174.182 0 316.006-138.701 316.006-309.299 0-86.784-36.762-165.888-101.325-222.822 9.882 26.112 15.002 53.504 15.002 82.022 0 141.312-116.019 256-258.355 256-13.107 0-27.034-0.922-38.246-2.56-9.267-1.28-16.282-9.318-16.282-18.79v-106.189l-220.211 220.058z" />
<glyph unicode="&#xe92d;" glyph-name="Search" d="M989.594-57.446l-339.149 339.149c-68.709-62.001-160.182-99.934-260.514-99.934-215.131 0-389.53 174.398-389.53 389.53s174.398 389.53 389.53 389.53c215.131 0 389.53-174.398 389.53-389.53 0-100.332-37.933-191.804-100.239-260.858l0.305 0.344 339.149-339.149zM390.349 919.040c-0.365 0.001-0.797 0.002-1.229 0.002-192.283 0-348.16-155.877-348.16-348.16s155.877-348.16 348.16-348.16c192.283 0 348.159 155.876 348.16 348.158v0c-0.23 191.759-155.27 347.23-346.842 348.16h-0.089z" />
<glyph unicode="&#xe92e;" glyph-name="settings" d="M551.322-64h-78.643c-24.57 0.377-45.013 17.598-50.312 40.607l-0.068 0.353-12.698 66.355c-8.446 33.808-38.553 58.456-74.416 58.456-14.572 0-28.194-4.069-39.791-11.133l0.338 0.191-49.971-38.093c-8.401-5.975-18.869-9.553-30.173-9.553-14.647 0-27.89 6.006-37.403 15.689l-0.008 0.008-55.296 54.886c-9.793 9.535-15.868 22.847-15.868 37.578 0 11.408 3.644 21.966 9.831 30.572l-0.107-0.156 38.093 53.248c5.859 10.571 9.307 23.18 9.307 36.593 0 35.27-23.839 64.972-56.283 73.873l-0.538 0.126-66.355 12.288c-23.362 5.368-40.583 25.811-40.959 50.339l-0.001 0.041v79.053c0.18 24.739 17.465 45.39 40.607 50.722l0.353 0.068 66.355 12.288c33.386 8.747 57.618 38.647 57.618 74.207 0 13.99-3.75 27.103-10.301 38.39l0.197-0.367-38.093 51.61c-6.080 8.45-9.724 19.007-9.724 30.416 0 14.731 6.075 28.043 15.857 37.567l0.012 0.011 55.296 54.886c9.52 9.691 22.764 15.697 37.411 15.697 11.304 0 21.773-3.578 30.335-9.662l-0.162 0.109 53.248-38.093c10.571-5.859 23.18-9.307 36.593-9.307 35.27 0 64.972 23.839 73.873 56.283l0.126 0.538 12.288 66.355c5.368 23.362 25.811 40.583 50.339 40.959l0.041 0.001h79.053c24.739-0.18 45.39-17.465 50.722-40.607l0.068-0.353 12.288-66.355c6.772-23.535 23.172-42.346 44.548-52.218l0.508-0.21c8.57-3.468 18.51-5.48 28.919-5.48 14.702 0 28.468 4.014 40.259 11.005l-0.366-0.201 49.971 37.683c8.401 5.975 18.869 9.553 30.173 9.553 14.647 0 27.89-6.006 37.403-15.689l0.008-0.008 55.296-54.886c9.793-9.535 15.868-22.847 15.868-37.578 0-11.408-3.644-21.966-9.831-30.572l0.107 0.156-38.093-53.248c-5.859-10.571-9.307-23.18-9.307-36.593 0-35.27 23.839-64.972 56.283-73.873l0.538-0.126 66.355-12.288c23.362-5.368 40.583-25.811 40.959-50.339l0.001-0.041v-79.053c-0.377-24.57-17.598-45.013-40.607-50.312l-0.353-0.068-66.355-12.698c-33.808-8.446-58.456-38.553-58.456-74.416 0-14.572 4.069-28.194 11.133-39.791l-0.191 0.338 38.093-53.248c5.269-8.039 8.404-17.889 8.404-28.47 0-14.071-5.543-26.848-14.566-36.265l0.018 0.019-55.296-54.886c-9.398-9.004-22.175-14.548-36.246-14.548-11.101 0-21.396 3.45-29.872 9.337l0.173-0.114-53.248 38.093c-10.877 6.29-23.927 10.002-37.844 10.002-35.82 0-65.896-24.588-74.274-57.806l-0.113-0.529-12.288-66.355c-5.401-23.495-26.052-40.78-50.771-40.96h-0.020zM336.282 140.8c0.35 0.004 0.763 0.006 1.176 0.006 55.019 0 101.086-38.332 112.95-89.747l0.152-0.781 10.65-64.717c1.233-4.719 5.28-8.212 10.2-8.599l0.040-0.003h79.053c4.96 0.39 9.007 3.883 10.222 8.522l0.018 0.080 12.698 64.307c11.606 53.443 58.5 92.886 114.606 92.886 23.625 0 45.617-6.994 64.018-19.023l-0.448 0.275 53.248-38.093c1.828-1.287 4.101-2.057 6.554-2.057s4.726 0.77 6.59 2.081l-0.036-0.024 55.706 55.706c1.287 1.828 2.057 4.101 2.057 6.554s-0.77 4.726-2.081 6.59l0.024-0.036-38.093 53.248c-11.899 18.032-18.982 40.154-18.982 63.93 0 56.19 39.561 103.14 92.349 114.516l0.771 0.139 64.717 10.65c4.719 1.233 8.212 5.28 8.599 10.2l0.003 0.040v79.872c-0.39 4.96-3.883 9.007-8.522 10.222l-0.080 0.018-64.717 11.878c-53.443 11.606-92.886 58.5-92.886 114.606 0 23.625 6.994 45.617 19.023 64.018l-0.275-0.448 38.093 53.248c1.287 1.828 2.057 4.101 2.057 6.554s-0.77 4.726-2.081 6.59l0.024-0.036-56.525 54.886c-1.828 1.287-4.101 2.057-6.554 2.057s-4.726-0.77-6.59-2.081l0.036 0.024-53.248-38.093c-17.758-11.41-39.435-18.189-62.696-18.189-56.2 0-103.156 39.574-114.522 92.376l-0.139 0.77-10.65 64.717c-1.317 4.989-5.789 8.607-11.106 8.607-0.128 0-0.255-0.002-0.381-0.006h-78.625c-4.96-0.39-9.007-3.883-10.222-8.522l-0.018-0.080-11.878-64.307c-11.873-53.101-58.6-92.196-114.458-92.196-23.174 0-44.777 6.729-62.961 18.34l0.472-0.282-53.248 38.093c-1.828 1.287-4.101 2.057-6.554 2.057s-4.726-0.77-6.59-2.081l0.036 0.024-56.115-56.934c-1.287-1.828-2.057-4.101-2.057-6.554s0.77-4.726 2.081-6.59l-0.024 0.036 38.093-53.248c11.41-17.758 18.189-39.435 18.189-62.696 0-56.2-39.574-103.156-92.376-114.522l-0.77-0.139-64.717-10.65c-4.719-1.233-8.212-5.28-8.599-10.2l-0.003-0.040v-79.053c0.39-4.96 3.883-9.007 8.522-10.222l0.080-0.018 64.717-12.698c53.443-11.606 92.886-58.5 92.886-114.606 0-23.625-6.994-45.617-19.023-64.018l0.275 0.448-38.093-53.248c-1.287-1.828-2.057-4.101-2.057-6.554s0.77-4.726 2.081-6.59l-0.024 0.036 56.115-55.706c1.828-1.287 4.101-2.057 6.554-2.057s4.726 0.77 6.59 2.081l-0.036-0.024 53.248 38.093c16.344 10.381 36.252 16.544 57.6 16.544 2.071 0 4.129-0.058 6.171-0.172l-0.283 0.013zM512 222.72c-124.419 0-225.28 100.861-225.28 225.28s100.861 225.28 225.28 225.28c124.419 0 225.28-100.861 225.28-225.28v0c-0.233-124.325-100.955-225.047-225.258-225.28h-0.022zM512 632.32c-101.797 0-184.32-82.523-184.32-184.32s82.523-184.32 184.32-184.32c101.797 0 184.32 82.523 184.32 184.32v0c0 101.797-82.523 184.32-184.32 184.32v0z" />
<glyph unicode="&#xe92f;" glyph-name="share" d="M751.616 313.805c-46.080 0-87.142-22.016-113.459-55.808l-232.909 135.014c14.541 35.379 14.541 74.598 0 109.875l232.909 135.066c26.317-33.843 67.328-55.808 113.459-55.808 79.309 0 143.821 64.512 143.821 143.77s-64.512 143.821-143.821 143.821c-79.258 0-143.77-64.512-143.77-143.821 0-19.456 3.891-37.939 10.957-54.938l-232.96-135.066c-26.368 33.843-67.379 55.808-113.51 55.808-79.258 0-143.77-64.512-143.77-143.821s64.512-143.77 143.77-143.77c46.080 0 87.142 22.016 113.51 55.808l232.96-135.014c-7.066-16.998-10.957-35.482-10.957-54.989 0-79.309 64.512-143.821 143.77-143.821 79.309 0 143.821 64.512 143.821 143.821s-64.512 143.872-143.821 143.872zM751.616 831.386c58.163 0 105.472-47.258 105.472-105.472s-47.36-105.37-105.472-105.37-105.421 47.258-105.421 105.421 47.258 105.421 105.421 105.421zM272.333 342.477c-58.163 0-105.472 47.309-105.472 105.472s47.258 105.421 105.472 105.421c58.112 0 105.472-47.258 105.472-105.421s-47.36-105.472-105.472-105.472zM751.616 64.614c-58.163 0-105.421 47.206-105.421 105.421s47.258 105.523 105.421 105.523 105.472-47.309 105.472-105.523-47.36-105.421-105.472-105.421z" />
<glyph unicode="&#xe930;" glyph-name="star" d="M905.421 554.24l-262.707 34.304-113.869 239.872c-6.707 14.080-26.982 14.080-33.69 0l-113.869-239.872-262.707-34.304c-15.462-1.997-21.709-20.89-10.394-31.488l192.512-182.682-48.589-261.222c-2.867-15.206 13.363-26.88 27.29-19.405l232.602 126.976 232.602-126.925c13.978-7.834 30.054 4.557 27.29 19.405l-48.589 261.274 192.512 182.682c11.315 10.496 5.069 29.389-10.394 31.386zM690.227 359.782c-4.557-4.25-6.605-10.496-5.376-16.589l43.418-232.806-207.206 113.050c-2.816 1.536-5.939 2.304-9.011 2.304s-6.246-0.768-9.011-2.304l-207.206-113.050 43.366 232.806c1.178 6.093-0.819 12.339-5.376 16.589l-171.93 162.97 234.394 30.669c6.349 0.819 11.725 4.762 14.438 10.394l101.274 213.504 101.274-213.504c2.714-5.632 8.090-9.574 14.438-10.394l234.394-30.618-171.878-163.021z" />
<glyph unicode="&#xe931;" glyph-name="tag" d="M469.402-64c-0.075 0-0.163 0-0.251 0-20.523 0-39.11 8.294-52.59 21.712l0.003-0.003-394.445 394.854c-13.532 13.057-21.936 31.352-21.936 51.61s8.403 38.553 21.915 51.589l0.021 0.020 466.944 463.258c28.572 25.021 66.094 40.45 107.209 40.959l0.106 0.001h362.496c1.938 0.226 4.184 0.355 6.459 0.355 32.575 0 58.982-26.407 58.982-58.982 0-2.145-0.114-4.263-0.338-6.348l0.022 0.259v-362.496c-0.51-41.221-15.939-78.743-41.125-107.507l0.165 0.192-460.39-467.354c-13.581-13.662-32.386-22.118-53.166-22.118-0.029 0-0.058 0-0.087 0h0.005zM50.79 427.52c-6.077-5.696-9.863-13.772-9.863-22.733s3.786-17.037 9.846-22.717l0.017-0.016 394.445-394.445c6.144-6.106 14.612-9.88 23.962-9.88s17.817 3.774 23.963 9.882l-0.002-0.002 462.029 466.944c17.124 21.101 27.584 48.215 27.852 77.765v362.965c0 18.842-5.325 23.757-23.757 23.757h-362.906c-29.705-0.044-56.987-10.381-78.48-27.634l0.246 0.191zM737.28 550.4c-67.865 0-122.88 55.015-122.88 122.88s55.015 122.88 122.88 122.88c67.865 0 122.88-55.015 122.88-122.88v0c0-67.865-55.015-122.88-122.88-122.88v0zM737.28 755.2c-45.243 0-81.92-36.677-81.92-81.92s36.677-81.92 81.92-81.92c45.243 0 81.92 36.677 81.92 81.92v0c0 45.243-36.677 81.92-81.92 81.92v0z" />
<glyph unicode="&#xe932;" glyph-name="times-circle" d="M521.472 887.45c-242.739 0-439.45-196.71-439.45-439.45 0-242.688 196.71-439.398 439.45-439.398s439.45 196.71 439.45 439.398c0 242.739-196.71 439.45-439.45 439.45zM521.472 54.784c-216.832 0-393.165 176.384-393.165 393.216s176.333 393.165 393.165 393.165 393.165-176.333 393.165-393.165c0-216.781-176.333-393.216-393.165-393.216zM554.189 448l145.51 145.613c9.114 9.011 9.114 23.552 0 32.614-9.062 9.114-23.603 9.114-32.614 0l-145.613-145.459-145.613 145.408c-9.011 9.114-23.552 9.114-32.614 0-9.114-9.011-9.114-23.603 0-32.614l145.51-145.562-145.459-145.613c-9.114-9.011-9.114-23.603 0-32.614 9.114-9.114 23.501-9.114 32.614 0l145.613 145.459 145.613-145.459c9.114-9.114 23.501-9.114 32.614 0 9.114 9.011 9.114 23.603 0 32.614l-145.562 145.613z" />
<glyph unicode="&#xe933;" glyph-name="times" d="M813.978 752.896c-13.875 13.926-36.506 13.926-50.483 0l-241.152-241.203-241.101 241.203c-13.926 13.926-36.557 13.926-50.483 0s-13.926-36.557 0-50.483l241.101-241.203-241.152-241.203c-13.926-13.875-13.926-36.506 0-50.483 6.963-6.963 16.077-10.394 25.19-10.394 9.165 0 18.278 3.43 25.242 10.394l241.203 241.203 241.152-241.203c7.014-6.963 16.077-10.394 25.293-10.394 9.114 0 18.176 3.43 25.19 10.394 13.978 13.978 13.978 36.608 0 50.483l-241.203 241.203 241.203 241.203c14.029 13.926 14.029 36.557 0 50.483z" />
<glyph unicode="&#xe934;" glyph-name="trash" d="M876.237 759.142h-234.957v76.595c0 12.902-10.598 23.501-23.552 23.501h-211.456c-12.902 0-23.501-10.598-23.501-23.501v-76.595h-235.008c-12.902 0-23.501-10.496-23.501-23.501 0-12.902 10.598-23.501 23.501-23.501h77.312v-651.878c0-12.902 10.598-23.501 23.501-23.501h526.848c13.005 0 23.501 10.598 23.501 23.501v651.878h77.363c12.902 0 23.501 10.598 23.501 23.501-0.051 13.056-10.65 23.501-23.552 23.501zM429.773 812.237h164.557v-47.002h-164.557v47.002zM751.923 83.763h-479.846v628.378h479.846v-628.378zM641.28 585.933v-376.013c0-12.902-10.598-23.501-23.552-23.501s-23.45 10.598-23.45 23.501v376.013c0 13.005 10.496 23.501 23.45 23.501s23.552-10.445 23.552-23.501zM429.773 585.933v-376.013c0-12.902-10.598-23.501-23.501-23.501s-23.501 10.598-23.501 23.501v376.013c0 13.005 10.598 23.501 23.501 23.501s23.501-10.445 23.501-23.501z" />
<glyph unicode="&#xe935;" glyph-name="user" d="M512 401.92c121.498 0 220.314 98.918 220.314 220.467 0 121.446-98.816 220.262-220.314 220.262s-220.365-98.867-220.365-220.262c0-121.6 98.867-220.467 220.365-220.467zM512 789.453c92.211 0 167.219-74.906 167.219-167.066 0-92.262-75.008-167.27-167.219-167.27-92.16 0-167.168 75.008-167.168 167.27 0 92.16 75.008 167.066 167.168 167.066zM512 319.846c-226.202 0-403.354-105.37-403.354-239.872 0-14.746 11.827-26.624 26.624-26.624 14.694 0 26.573 11.827 26.573 26.624 0 101.171 160.358 186.675 350.208 186.675 189.798 0 350.106-85.555 350.106-186.675 0-14.746 11.981-26.624 26.675-26.624s26.624 11.827 26.624 26.624c-0.051 134.502-177.254 239.872-403.456 239.872z" />
<glyph unicode="&#xe936;" glyph-name="wallet" d="M819.2 345.6c0-22.622-18.338-40.96-40.96-40.96s-40.96 18.338-40.96 40.96c0 22.622 18.338 40.96 40.96 40.96v0c22.622 0 40.96-18.338 40.96-40.96v0zM1024 417.28v-143.36c0.018-0.507 0.029-1.104 0.029-1.702 0-24.503-17.492-44.92-40.671-49.446l-0.318-0.052v-155.648c-1.13-27.382-23.602-49.152-51.159-49.152-0.014 0-0.029 0-0.043 0h-829.438c-56.554 0-102.4 45.846-102.4 102.4v0 614.4c0 56.554 45.846 102.4 102.4 102.4v0h747.52c28.277 0 51.2-22.923 51.2-51.2v0-112.64h30.72c28.277 0 51.2-22.923 51.2-51.2v0-155.648c23.37-4.566 40.79-24.8 40.96-49.134v-0.018zM40.96 734.72c-0.002-0.197-0.004-0.429-0.004-0.661 0-17.165 7.232-32.641 18.815-43.547l0.030-0.028c10.972-10.643 25.956-17.203 42.472-17.203 0.044 0 0.089 0 0.133 0h757.753v40.96h-737.28v40.96h737.28v30.72c0 5.655-4.585 10.24-10.24 10.24v0h-747.52c-33.932 0-61.44-27.508-61.44-61.44v0zM942.080 222.72h-163.84c-67.865 0-122.88 55.015-122.88 122.88s55.015 122.88 122.88 122.88v0h163.84v153.6c0 5.655-4.585 10.24-10.24 10.24v0h-829.44c-23.275 0.157-44.654 8.149-61.661 21.466l0.221-0.167v-532.48c-0.003-0.244-0.005-0.531-0.005-0.819 0-33.932 27.508-61.44 61.44-61.44 0.002 0 0.004 0 0.006 0h829.44c5.655 0 10.24 4.585 10.24 10.24v0zM983.040 417.28c0 5.655-4.585 10.24-10.24 10.24v0h-194.56c-0.355 0.006-0.774 0.009-1.194 0.009-45.243 0-81.92-36.677-81.92-81.92 0-4.923 0.434-9.745 1.267-14.43l-0.073 0.495c8.248-39.111 42.471-68.045 83.453-68.045 1.046 0 2.087 0.019 3.123 0.056l-0.15-0.004h190.054c5.655 0 10.24 4.585 10.24 10.24v0z" />
<glyph unicode="&#xe937;" glyph-name="webcamera" d="M917.453 722.79l-196.25-126.976v37.99c0 51.2-41.728 92.928-92.979 92.928h-464.845c-51.251 0-92.979-41.677-92.979-92.928v-371.763c0-51.251 41.728-92.928 92.979-92.928h464.845c51.251 0 92.979 41.677 92.979 92.928v37.837l196.25-126.874c21.914-11.571 36.147 8.038 36.147 19.302v511.181c0 11.418-12.851 32.358-36.147 19.302zM674.714 262.042c0-25.651-20.787-46.438-46.49-46.438h-464.845c-25.651 0-46.49 20.787-46.49 46.438v371.763c0 25.651 20.838 46.438 46.49 46.438h464.845c25.702 0 46.49-20.787 46.49-46.438v-371.763zM907.11 235.11l-185.907 120.218v185.19l185.907 120.218v-425.626z" />
<glyph unicode="&#xe938;" glyph-name="wifi" d="M512 99.84c-56.554 0-102.4 45.846-102.4 102.4s45.846 102.4 102.4 102.4c56.554 0 102.4-45.846 102.4-102.4v0c0-56.554-45.846-102.4-102.4-102.4v0zM512 263.68c-33.932 0-61.44-27.508-61.44-61.44s27.508-61.44 61.44-61.44c33.932 0 61.44 27.508 61.44 61.44v0c0 33.932-27.508 61.44-61.44 61.44v0zM701.645 341.914c-46.61 52.667-114.372 85.701-189.85 85.701s-143.24-33.034-189.617-85.434l-0.232-0.267-29.901 27.853c54.113 60.643 132.494 98.644 219.75 98.644s165.638-38 219.497-98.355l0.254-0.289zM831.488 434.893c-76.009 93.935-190.489 154.144-319.103 156.462l-0.385 0.005c-128.999-2.324-243.479-62.532-318.87-155.678l-0.618-0.789-31.13 26.624c83.536 102.775 209.173 168.538 350.24 170.798l0.378 0.005c141.505-2.372 267.148-68.282 349.946-170.357l0.672-0.856zM968.294 557.773c-114.725 121.285-276.627 196.923-456.2 197.427h-0.094c-179.836-0.846-341.74-76.915-455.993-198.333l-0.301-0.323-29.491 28.672c122.026 129.421 294.399 210.218 485.653 210.944h0.133c191.387-0.726 363.761-81.524 485.475-210.612l0.31-0.332z" />
</font>
</defs>
</svg>
